solid 
   facet normal 8.574929e-01 -5.144958e-01 0.000000e+00
      outer loop
         vertex -1.530808e-15 -1.250000e+01 4.000000e+00
         vertex -1.530808e-15 -1.250000e+01 0.000000e+00
         vertex 7.500000e+00 -9.184850e-16 0.000000e+00
      endloop
   endfacet
   facet normal 8.574929e-01 -5.144958e-01 0.000000e+00
      outer loop
         vertex 7.500000e+00 -9.184850e-16 0.000000e+00
         vertex 7.500000e+00 -9.184850e-16 4.000000e+00
         vertex -1.530808e-15 -1.250000e+01 4.000000e+00
      endloop
   endfacet
   facet normal 1.000000e+00 0.000000e+00 0.000000e+00
      outer loop
         vertex 7.500000e+00 -9.184850e-16 4.000000e+00
         vertex 7.500000e+00 -9.184850e-16 0.000000e+00
         vertex 7.500000e+00 1.250000e+01 0.000000e+00
      endloop
   endfacet
   facet normal 1.000000e+00 0.000000e+00 0.000000e+00
      outer loop
         vertex 7.500000e+00 1.250000e+01 0.000000e+00
         vertex 7.500000e+00 1.250000e+01 4.000000e+00
         vertex 7.500000e+00 -9.184850e-16 4.000000e+00
      endloop
   endfacet
   facet normal 0.000000e+00 1.000000e+00 -0.000000e+00
      outer loop
         vertex 7.500000e+00 1.250000e+01 4.000000e+00
         vertex 7.500000e+00 1.250000e+01 0.000000e+00
         vertex -7.500000e+00 1.250000e+01 0.000000e+00
      endloop
   endfacet
   facet normal -0.000000e+00 1.000000e+00 0.000000e+00
      outer loop
         vertex -7.500000e+00 1.250000e+01 0.000000e+00
         vertex -7.500000e+00 1.250000e+01 4.000000e+00
         vertex 7.500000e+00 1.250000e+01 4.000000e+00
      endloop
   endfacet
   facet normal -1.000000e+00 0.000000e+00 0.000000e+00
      outer loop
         vertex -7.500000e+00 1.250000e+01 4.000000e+00
         vertex -7.500000e+00 1.250000e+01 0.000000e+00
         vertex -7.500000e+00 9.184850e-16 0.000000e+00
      endloop
   endfacet
   facet normal -1.000000e+00 0.000000e+00 0.000000e+00
      outer loop
         vertex -7.500000e+00 9.184850e-16 0.000000e+00
         vertex -7.500000e+00 9.184850e-16 4.000000e+00
         vertex -7.500000e+00 1.250000e+01 4.000000e+00
      endloop
   endfacet
   facet normal -8.574929e-01 -5.144958e-01 0.000000e+00
      outer loop
         vertex -7.500000e+00 9.184850e-16 4.000000e+00
         vertex -7.500000e+00 9.184850e-16 0.000000e+00
         vertex -1.530808e-15 -1.250000e+01 0.000000e+00
      endloop
   endfacet
   facet normal -8.574929e-01 -5.144958e-01 -0.000000e+00
      outer loop
         vertex -1.530808e-15 -1.250000e+01 0.000000e+00
         vertex -1.530808e-15 -1.250000e+01 4.000000e+00
         vertex -7.500000e+00 9.184850e-16 4.000000e+00
      endloop
   endfacet
   facet normal 0.000000e+00 -0.000000e+00 1.000000e+00
      outer loop
         vertex -7.500000e+00 9.184850e-16 4.000000e+00
         vertex -1.530808e-15 -1.250000e+01 4.000000e+00
         vertex 7.500000e+00 -9.184850e-16 4.000000e+00
      endloop
   endfacet
   facet normal 0.000000e+00 0.000000e+00 1.000000e+00
      outer loop
         vertex 7.500000e+00 -9.184850e-16 4.000000e+00
         vertex 7.500000e+00 1.250000e+01 4.000000e+00
         vertex -7.500000e+00 9.184850e-16 4.000000e+00
      endloop
   endfacet
   facet normal -0.000000e+00 0.000000e+00 1.000000e+00
      outer loop
         vertex 7.500000e+00 1.250000e+01 4.000000e+00
         vertex -7.500000e+00 1.250000e+01 4.000000e+00
         vertex -7.500000e+00 9.184850e-16 4.000000e+00
      endloop
   endfacet
   facet normal -0.000000e+00 0.000000e+00 -1.000000e+00
      outer loop
         vertex -7.500000e+00 9.184850e-16 0.000000e+00
         vertex 7.500000e+00 -9.184850e-16 0.000000e+00
         vertex -1.530808e-15 -1.250000e+01 0.000000e+00
      endloop
   endfacet
   facet normal -0.000000e+00 -0.000000e+00 -1.000000e+00
      outer loop
         vertex -7.500000e+00 1.250000e+01 0.000000e+00
         vertex 7.500000e+00 1.250000e+01 0.000000e+00
         vertex 7.500000e+00 -9.184850e-16 0.000000e+00
      endloop
   endfacet
   facet normal 0.000000e+00 0.000000e+00 -1.000000e+00
      outer loop
         vertex 7.500000e+00 -9.184850e-16 0.000000e+00
         vertex -7.500000e+00 9.184850e-16 0.000000e+00
         vertex -7.500000e+00 1.250000e+01 0.000000e+00
      endloop
   endfacet
endsolid
