solid 
   facet normal 0.000000e+00 0.000000e+00 1.000000e+00
      outer loop
         vertex -1.731440e+02 2.500000e-01 1.000000e-03
         vertex -1.731440e+02 -2.500000e-01 1.000000e-03
         vertex -1.002500e+02 -2.500000e-01 1.000000e-03
      endloop
   endfacet
   facet normal 0.000000e+00 0.000000e+00 1.000000e+00
      outer loop
         vertex -1.002500e+02 -2.500000e-01 1.000000e-03
         vertex -1.002500e+02 -8.620423e+01 1.000000e-03
         vertex -9.975000e+01 -8.620423e+01 1.000000e-03
      endloop
   endfacet
   facet normal 0.000000e+00 0.000000e+00 1.000000e+00
      outer loop
         vertex -9.975000e+01 -8.620423e+01 1.000000e-03
         vertex -9.975000e+01 -2.500000e-01 1.000000e-03
         vertex -1.002500e+02 -2.500000e-01 1.000000e-03
      endloop
   endfacet
   facet normal 0.000000e+00 -0.000000e+00 1.000000e+00
      outer loop
         vertex -9.975000e+01 -2.500000e-01 1.000000e-03
         vertex -2.500000e-01 -2.500000e-01 1.000000e-03
         vertex -2.500000e-01 2.500000e-01 1.000000e-03
      endloop
   endfacet
   facet normal 0.000000e+00 0.000000e+00 1.000000e+00
      outer loop
         vertex -2.500000e-01 -2.500000e-01 1.000000e-03
         vertex -2.500000e-01 -2.787944e+00 1.000000e-03
         vertex 2.500000e-01 -2.787944e+00 1.000000e-03
      endloop
   endfacet
   facet normal -0.000000e+00 0.000000e+00 1.000000e+00
      outer loop
         vertex -2.500000e-01 -2.787944e+00 1.000000e-03
         vertex -7.517735e-01 -2.787944e+00 1.000000e-03
         vertex -2.500000e-01 -3.442400e+00 1.000000e-03
      endloop
   endfacet
   facet normal 0.000000e+00 0.000000e+00 1.000000e+00
      outer loop
         vertex -2.500000e-01 -3.442400e+00 1.000000e-03
         vertex -2.500000e-01 -8.480443e+01 1.000000e-03
         vertex 2.500000e-01 -8.480443e+01 1.000000e-03
      endloop
   endfacet
   facet normal 0.000000e+00 0.000000e+00 1.000000e+00
      outer loop
         vertex 2.500000e-01 -8.480443e+01 1.000000e-03
         vertex 2.500000e-01 -3.442400e+00 1.000000e-03
         vertex -2.500000e-01 -3.442400e+00 1.000000e-03
      endloop
   endfacet
   facet normal 0.000000e+00 0.000000e+00 1.000000e+00
      outer loop
         vertex 2.500000e-01 -3.442400e+00 1.000000e-03
         vertex 7.517735e-01 -2.787944e+00 1.000000e-03
         vertex 2.500000e-01 -2.787944e+00 1.000000e-03
      endloop
   endfacet
   facet normal 0.000000e+00 0.000000e+00 1.000000e+00
      outer loop
         vertex 2.500000e-01 -2.787944e+00 1.000000e-03
         vertex 2.500000e-01 -2.500000e-01 1.000000e-03
         vertex -2.500000e-01 -2.500000e-01 1.000000e-03
      endloop
   endfacet
   facet normal 0.000000e+00 -0.000000e+00 1.000000e+00
      outer loop
         vertex 2.500000e-01 -2.500000e-01 1.000000e-03
         vertex 9.975000e+01 -2.500000e-01 1.000000e-03
         vertex 9.975000e+01 2.500000e-01 1.000000e-03
      endloop
   endfacet
   facet normal 0.000000e+00 0.000000e+00 1.000000e+00
      outer loop
         vertex 9.975000e+01 -2.500000e-01 1.000000e-03
         vertex 9.975000e+01 -8.477669e+01 1.000000e-03
         vertex 1.002500e+02 -8.477669e+01 1.000000e-03
      endloop
   endfacet
   facet normal 0.000000e+00 0.000000e+00 1.000000e+00
      outer loop
         vertex 1.002500e+02 -8.477669e+01 1.000000e-03
         vertex 1.002500e+02 -2.500000e-01 1.000000e-03
         vertex 9.975000e+01 -2.500000e-01 1.000000e-03
      endloop
   endfacet
   facet normal 0.000000e+00 -0.000000e+00 1.000000e+00
      outer loop
         vertex 1.002500e+02 -2.500000e-01 1.000000e-03
         vertex 1.729031e+02 -2.500000e-01 1.000000e-03
         vertex 1.729031e+02 2.500000e-01 1.000000e-03
      endloop
   endfacet
   facet normal -0.000000e+00 0.000000e+00 1.000000e+00
      outer loop
         vertex 1.729031e+02 2.500000e-01 1.000000e-03
         vertex 1.002500e+02 2.500000e-01 1.000000e-03
         vertex 1.002500e+02 -2.500000e-01 1.000000e-03
      endloop
   endfacet
   facet normal 0.000000e+00 0.000000e+00 1.000000e+00
      outer loop
         vertex 1.002500e+02 2.500000e-01 1.000000e-03
         vertex 1.002500e+02 8.468045e+01 1.000000e-03
         vertex 9.975000e+01 8.468045e+01 1.000000e-03
      endloop
   endfacet
   facet normal 0.000000e+00 0.000000e+00 1.000000e+00
      outer loop
         vertex 9.975000e+01 8.468045e+01 1.000000e-03
         vertex 9.975000e+01 2.500000e-01 1.000000e-03
         vertex 1.002500e+02 2.500000e-01 1.000000e-03
      endloop
   endfacet
   facet normal -0.000000e+00 0.000000e+00 1.000000e+00
      outer loop
         vertex 9.975000e+01 2.500000e-01 1.000000e-03
         vertex 2.500000e-01 2.500000e-01 1.000000e-03
         vertex 2.500000e-01 -2.500000e-01 1.000000e-03
      endloop
   endfacet
   facet normal 0.000000e+00 0.000000e+00 1.000000e+00
      outer loop
         vertex 2.500000e-01 2.500000e-01 1.000000e-03
         vertex 2.500000e-01 8.480025e+01 1.000000e-03
         vertex -2.500000e-01 2.500000e-01 1.000000e-03
      endloop
   endfacet
   facet normal 0.000000e+00 0.000000e+00 1.000000e+00
      outer loop
         vertex 2.500000e-01 8.480025e+01 1.000000e-03
         vertex -2.500000e-01 8.480443e+01 1.000000e-03
         vertex -2.500000e-01 2.500000e-01 1.000000e-03
      endloop
   endfacet
   facet normal -0.000000e+00 0.000000e+00 1.000000e+00
      outer loop
         vertex -2.500000e-01 2.500000e-01 1.000000e-03
         vertex -9.975000e+01 2.500000e-01 1.000000e-03
         vertex -9.975000e+01 -2.500000e-01 1.000000e-03
      endloop
   endfacet
   facet normal 0.000000e+00 0.000000e+00 1.000000e+00
      outer loop
         vertex -9.975000e+01 2.500000e-01 1.000000e-03
         vertex -9.975000e+01 8.492065e+01 1.000000e-03
         vertex -1.002500e+02 8.492065e+01 1.000000e-03
      endloop
   endfacet
   facet normal 0.000000e+00 0.000000e+00 1.000000e+00
      outer loop
         vertex -1.002500e+02 8.492065e+01 1.000000e-03
         vertex -1.002500e+02 2.500000e-01 1.000000e-03
         vertex -9.975000e+01 2.500000e-01 1.000000e-03
      endloop
   endfacet
   facet normal -0.000000e+00 0.000000e+00 1.000000e+00
      outer loop
         vertex -1.002500e+02 2.500000e-01 1.000000e-03
         vertex -1.731440e+02 2.500000e-01 1.000000e-03
         vertex -1.002500e+02 -2.500000e-01 1.000000e-03
      endloop
   endfacet
   facet normal 0.000000e+00 -0.000000e+00 1.000000e+00
      outer loop
         vertex -1.002500e+02 -2.500000e-01 1.000000e-03
         vertex -9.975000e+01 -2.500000e-01 1.000000e-03
         vertex -9.975000e+01 2.500000e-01 1.000000e-03
      endloop
   endfacet
   facet normal 0.000000e+00 0.000000e+00 1.000000e+00
      outer loop
         vertex -2.500000e-01 2.500000e-01 1.000000e-03
         vertex -2.500000e-01 -2.500000e-01 1.000000e-03
         vertex 2.500000e-01 -2.500000e-01 1.000000e-03
      endloop
   endfacet
   facet normal -0.000000e+00 0.000000e+00 1.000000e+00
      outer loop
         vertex 2.500000e-01 -2.787944e+00 1.000000e-03
         vertex -2.500000e-01 -2.787944e+00 1.000000e-03
         vertex 2.500000e-01 -3.442400e+00 1.000000e-03
      endloop
   endfacet
   facet normal 0.000000e+00 0.000000e+00 1.000000e+00
      outer loop
         vertex -2.500000e-01 -2.787944e+00 1.000000e-03
         vertex -2.500000e-01 -3.442400e+00 1.000000e-03
         vertex 2.500000e-01 -3.442400e+00 1.000000e-03
      endloop
   endfacet
   facet normal 0.000000e+00 0.000000e+00 1.000000e+00
      outer loop
         vertex 9.975000e+01 2.500000e-01 1.000000e-03
         vertex 9.975000e+01 -2.500000e-01 1.000000e-03
         vertex 1.002500e+02 -2.500000e-01 1.000000e-03
      endloop
   endfacet
   facet normal 0.000000e+00 0.000000e+00 1.000000e+00
      outer loop
         vertex 1.002500e+02 -2.500000e-01 1.000000e-03
         vertex 1.002500e+02 2.500000e-01 1.000000e-03
         vertex 9.975000e+01 2.500000e-01 1.000000e-03
      endloop
   endfacet
   facet normal 0.000000e+00 0.000000e+00 1.000000e+00
      outer loop
         vertex 2.500000e-01 -2.500000e-01 1.000000e-03
         vertex 2.500000e-01 2.500000e-01 1.000000e-03
         vertex -2.500000e-01 2.500000e-01 1.000000e-03
      endloop
   endfacet
   facet normal -0.000000e+00 0.000000e+00 1.000000e+00
      outer loop
         vertex -9.975000e+01 2.500000e-01 1.000000e-03
         vertex -1.002500e+02 2.500000e-01 1.000000e-03
         vertex -1.002500e+02 -2.500000e-01 1.000000e-03
      endloop
   endfacet
   facet normal 0.000000e+00 3.156180e-10 -1.000000e+00
      outer loop
         vertex -2.500000e-01 -2.787944e+00 -8.010208e-10
         vertex -2.500000e-01 -2.500000e-01 0.000000e+00
         vertex 2.500000e-01 -2.500000e-01 0.000000e+00
      endloop
   endfacet
   facet normal 0.000000e+00 0.000000e+00 -1.000000e+00
      outer loop
         vertex -2.500000e-01 -2.500000e-01 0.000000e+00
         vertex -9.975000e+01 -2.500000e-01 0.000000e+00
         vertex -9.975000e+01 2.500000e-01 0.000000e+00
      endloop
   endfacet
   facet normal 0.000000e+00 0.000000e+00 -1.000000e+00
      outer loop
         vertex -9.975000e+01 -2.500000e-01 0.000000e+00
         vertex -9.975000e+01 -8.620423e+01 0.000000e+00
         vertex -1.002500e+02 -8.620423e+01 0.000000e+00
      endloop
   endfacet
   facet normal 0.000000e+00 0.000000e+00 -1.000000e+00
      outer loop
         vertex -1.002500e+02 -8.620423e+01 0.000000e+00
         vertex -1.002500e+02 -2.500000e-01 0.000000e+00
         vertex -9.975000e+01 -2.500000e-01 0.000000e+00
      endloop
   endfacet
   facet normal 0.000000e+00 0.000000e+00 -1.000000e+00
      outer loop
         vertex -1.002500e+02 -2.500000e-01 0.000000e+00
         vertex -1.731440e+02 -2.500000e-01 0.000000e+00
         vertex -1.731440e+02 2.500000e-01 0.000000e+00
      endloop
   endfacet
   facet normal -0.000000e+00 -0.000000e+00 -1.000000e+00
      outer loop
         vertex -1.731440e+02 2.500000e-01 0.000000e+00
         vertex -1.002500e+02 2.500000e-01 0.000000e+00
         vertex -1.002500e+02 -2.500000e-01 0.000000e+00
      endloop
   endfacet
   facet normal 0.000000e+00 0.000000e+00 -1.000000e+00
      outer loop
         vertex -1.002500e+02 2.500000e-01 0.000000e+00
         vertex -1.002500e+02 8.492065e+01 0.000000e+00
         vertex -9.975000e+01 8.492065e+01 0.000000e+00
      endloop
   endfacet
   facet normal 0.000000e+00 0.000000e+00 -1.000000e+00
      outer loop
         vertex -9.975000e+01 8.492065e+01 0.000000e+00
         vertex -9.975000e+01 2.500000e-01 0.000000e+00
         vertex -1.002500e+02 2.500000e-01 0.000000e+00
      endloop
   endfacet
   facet normal -0.000000e+00 -0.000000e+00 -1.000000e+00
      outer loop
         vertex -9.975000e+01 2.500000e-01 0.000000e+00
         vertex -2.500000e-01 2.500000e-01 0.000000e+00
         vertex -2.500000e-01 -2.500000e-01 0.000000e+00
      endloop
   endfacet
   facet normal 0.000000e+00 0.000000e+00 -1.000000e+00
      outer loop
         vertex -2.500000e-01 2.500000e-01 0.000000e+00
         vertex -2.500000e-01 8.480443e+01 0.000000e+00
         vertex 2.500000e-01 8.480025e+01 0.000000e+00
      endloop
   endfacet
   facet normal 0.000000e+00 0.000000e+00 -1.000000e+00
      outer loop
         vertex 2.500000e-01 8.480025e+01 0.000000e+00
         vertex 2.500000e-01 2.500000e-01 0.000000e+00
         vertex -2.500000e-01 2.500000e-01 0.000000e+00
      endloop
   endfacet
   facet normal -0.000000e+00 -0.000000e+00 -1.000000e+00
      outer loop
         vertex 2.500000e-01 2.500000e-01 0.000000e+00
         vertex 9.975000e+01 2.500000e-01 0.000000e+00
         vertex 9.975000e+01 -2.500000e-01 0.000000e+00
      endloop
   endfacet
   facet normal 0.000000e+00 0.000000e+00 -1.000000e+00
      outer loop
         vertex 9.975000e+01 2.500000e-01 0.000000e+00
         vertex 9.975000e+01 8.468045e+01 0.000000e+00
         vertex 1.002500e+02 8.468045e+01 0.000000e+00
      endloop
   endfacet
   facet normal 0.000000e+00 0.000000e+00 -1.000000e+00
      outer loop
         vertex 1.002500e+02 8.468045e+01 0.000000e+00
         vertex 1.002500e+02 2.500000e-01 0.000000e+00
         vertex 9.975000e+01 2.500000e-01 0.000000e+00
      endloop
   endfacet
   facet normal -0.000000e+00 -0.000000e+00 -1.000000e+00
      outer loop
         vertex 1.002500e+02 2.500000e-01 0.000000e+00
         vertex 1.729031e+02 2.500000e-01 0.000000e+00
         vertex 1.729031e+02 -2.500000e-01 0.000000e+00
      endloop
   endfacet
   facet normal 0.000000e+00 0.000000e+00 -1.000000e+00
      outer loop
         vertex 1.729031e+02 -2.500000e-01 0.000000e+00
         vertex 1.002500e+02 -2.500000e-01 0.000000e+00
         vertex 1.002500e+02 2.500000e-01 0.000000e+00
      endloop
   endfacet
   facet normal 0.000000e+00 0.000000e+00 -1.000000e+00
      outer loop
         vertex 1.002500e+02 -2.500000e-01 0.000000e+00
         vertex 1.002500e+02 -8.477669e+01 0.000000e+00
         vertex 9.975000e+01 -2.500000e-01 0.000000e+00
      endloop
   endfacet
   facet normal 0.000000e+00 0.000000e+00 -1.000000e+00
      outer loop
         vertex 1.002500e+02 -8.477669e+01 0.000000e+00
         vertex 9.975000e+01 -8.477669e+01 0.000000e+00
         vertex 9.975000e+01 -2.500000e-01 0.000000e+00
      endloop
   endfacet
   facet normal 0.000000e+00 0.000000e+00 -1.000000e+00
      outer loop
         vertex 9.975000e+01 -2.500000e-01 0.000000e+00
         vertex 2.500000e-01 -2.500000e-01 0.000000e+00
         vertex 2.500000e-01 2.500000e-01 0.000000e+00
      endloop
   endfacet
   facet normal 0.000000e+00 3.156180e-10 -1.000000e+00
      outer loop
         vertex 2.500000e-01 -2.500000e-01 0.000000e+00
         vertex 2.500000e-01 -2.787944e+00 -8.010208e-10
         vertex -2.500000e-01 -2.787944e+00 -8.010208e-10
      endloop
   endfacet
   facet normal -7.981897e-09 0.000000e+00 -1.000000e+00
      outer loop
         vertex 2.500000e-01 -2.787944e+00 -8.010208e-10
         vertex 7.517735e-01 -2.787944e+00 -4.806125e-09
         vertex 2.500000e-01 -3.442400e+00 -8.010208e-10
      endloop
   endfacet
   facet normal -0.000000e+00 -9.845143e-12 -1.000000e+00
      outer loop
         vertex 2.500000e-01 -3.442400e+00 -8.010208e-10
         vertex 2.500000e-01 -8.480443e+01 0.000000e+00
         vertex -2.500000e-01 -8.480443e+01 0.000000e+00
      endloop
   endfacet
   facet normal 0.000000e+00 -9.845143e-12 -1.000000e+00
      outer loop
         vertex -2.500000e-01 -8.480443e+01 0.000000e+00
         vertex -2.500000e-01 -3.442400e+00 -8.010208e-10
         vertex 2.500000e-01 -3.442400e+00 -8.010208e-10
      endloop
   endfacet
   facet normal 7.981897e-09 0.000000e+00 -1.000000e+00
      outer loop
         vertex -2.500000e-01 -3.442400e+00 -8.010208e-10
         vertex -7.517735e-01 -2.787944e+00 -4.806125e-09
         vertex -2.500000e-01 -2.787944e+00 -8.010208e-10
      endloop
   endfacet
   facet normal 0.000000e+00 0.000000e+00 -1.000000e+00
      outer loop
         vertex 2.500000e-01 -2.500000e-01 0.000000e+00
         vertex -2.500000e-01 -2.500000e-01 0.000000e+00
         vertex -2.500000e-01 2.500000e-01 0.000000e+00
      endloop
   endfacet
   facet normal 0.000000e+00 0.000000e+00 -1.000000e+00
      outer loop
         vertex -9.975000e+01 2.500000e-01 0.000000e+00
         vertex -9.975000e+01 -2.500000e-01 0.000000e+00
         vertex -1.002500e+02 -2.500000e-01 0.000000e+00
      endloop
   endfacet
   facet normal 0.000000e+00 0.000000e+00 -1.000000e+00
      outer loop
         vertex -1.002500e+02 -2.500000e-01 0.000000e+00
         vertex -1.002500e+02 2.500000e-01 0.000000e+00
         vertex -9.975000e+01 2.500000e-01 0.000000e+00
      endloop
   endfacet
   facet normal -0.000000e+00 -0.000000e+00 -1.000000e+00
      outer loop
         vertex -2.500000e-01 2.500000e-01 0.000000e+00
         vertex 2.500000e-01 2.500000e-01 0.000000e+00
         vertex 2.500000e-01 -2.500000e-01 0.000000e+00
      endloop
   endfacet
   facet normal 0.000000e+00 0.000000e+00 -1.000000e+00
      outer loop
         vertex 9.975000e+01 -2.500000e-01 0.000000e+00
         vertex 9.975000e+01 2.500000e-01 0.000000e+00
         vertex 1.002500e+02 2.500000e-01 0.000000e+00
      endloop
   endfacet
   facet normal 0.000000e+00 0.000000e+00 -1.000000e+00
      outer loop
         vertex 1.002500e+02 2.500000e-01 0.000000e+00
         vertex 1.002500e+02 -2.500000e-01 0.000000e+00
         vertex 9.975000e+01 -2.500000e-01 0.000000e+00
      endloop
   endfacet
   facet normal -0.000000e+00 0.000000e+00 -1.000000e+00
      outer loop
         vertex -2.500000e-01 -2.787944e+00 -8.010208e-10
         vertex 2.500000e-01 -2.787944e+00 -8.010208e-10
         vertex -2.500000e-01 -3.442400e+00 -8.010208e-10
      endloop
   endfacet
   facet normal 0.000000e+00 0.000000e+00 -1.000000e+00
      outer loop
         vertex 2.500000e-01 -2.787944e+00 -8.010208e-10
         vertex 2.500000e-01 -3.442400e+00 -8.010208e-10
         vertex -2.500000e-01 -3.442400e+00 -8.010208e-10
      endloop
   endfacet
   facet normal -1.000000e+00 -0.000000e+00 -0.000000e+00
      outer loop
         vertex -2.500000e-01 -8.480443e+01 1.000000e-03
         vertex -2.500000e-01 -3.442400e+00 1.000000e-03
         vertex -2.500000e-01 -3.442400e+00 -8.010208e-10
      endloop
   endfacet
   facet normal -1.000000e+00 0.000000e+00 0.000000e+00
      outer loop
         vertex -2.500000e-01 -3.442400e+00 -8.010208e-10
         vertex -2.500000e-01 -8.480443e+01 0.000000e+00
         vertex -2.500000e-01 -8.480443e+01 1.000000e-03
      endloop
   endfacet
   facet normal -1.000000e+00 0.000000e+00 0.000000e+00
      outer loop
         vertex -2.500000e-01 -2.500000e-01 0.000000e+00
         vertex -2.500000e-01 -2.787944e+00 -8.010208e-10
         vertex -2.500000e-01 -2.787944e+00 1.000000e-03
      endloop
   endfacet
   facet normal -1.000000e+00 -0.000000e+00 -0.000000e+00
      outer loop
         vertex -2.500000e-01 -2.787944e+00 1.000000e-03
         vertex -2.500000e-01 -2.500000e-01 1.000000e-03
         vertex -2.500000e-01 -2.500000e-01 0.000000e+00
      endloop
   endfacet
   facet normal 1.000000e+00 0.000000e+00 -0.000000e+00
      outer loop
         vertex 2.500000e-01 -8.480443e+01 0.000000e+00
         vertex 2.500000e-01 -3.442400e+00 -8.010208e-10
         vertex 2.500000e-01 -3.442400e+00 1.000000e-03
      endloop
   endfacet
   facet normal 1.000000e+00 -0.000000e+00 0.000000e+00
      outer loop
         vertex 2.500000e-01 -3.442400e+00 1.000000e-03
         vertex 2.500000e-01 -8.480443e+01 1.000000e-03
         vertex 2.500000e-01 -8.480443e+01 0.000000e+00
      endloop
   endfacet
   facet normal 1.000000e+00 -0.000000e+00 0.000000e+00
      outer loop
         vertex 2.500000e-01 -2.500000e-01 1.000000e-03
         vertex 2.500000e-01 -2.787944e+00 1.000000e-03
         vertex 2.500000e-01 -2.787944e+00 -8.010208e-10
      endloop
   endfacet
   facet normal 1.000000e+00 0.000000e+00 -0.000000e+00
      outer loop
         vertex 2.500000e-01 -2.787944e+00 -8.010208e-10
         vertex 2.500000e-01 -2.500000e-01 0.000000e+00
         vertex 2.500000e-01 -2.500000e-01 1.000000e-03
      endloop
   endfacet
   facet normal 7.935923e-01 -6.084498e-01 0.000000e+00
      outer loop
         vertex 7.517735e-01 -2.787944e+00 1.000000e-03
         vertex 2.500000e-01 -3.442400e+00 1.000000e-03
         vertex 2.500000e-01 -3.442400e+00 -8.010208e-10
      endloop
   endfacet
   facet normal 7.935923e-01 -6.084498e-01 0.000000e+00
      outer loop
         vertex 2.500000e-01 -3.442400e+00 -8.010208e-10
         vertex 7.517735e-01 -2.787944e+00 -4.806125e-09
         vertex 7.517735e-01 -2.787944e+00 1.000000e-03
      endloop
   endfacet
   facet normal -7.935923e-01 -6.084498e-01 0.000000e+00
      outer loop
         vertex -7.517735e-01 -2.787944e+00 -4.806125e-09
         vertex -2.500000e-01 -3.442400e+00 -8.010208e-10
         vertex -7.517735e-01 -2.787944e+00 1.000000e-03
      endloop
   endfacet
   facet normal -7.935923e-01 -6.084498e-01 -0.000000e+00
      outer loop
         vertex -2.500000e-01 -3.442400e+00 -8.010208e-10
         vertex -2.500000e-01 -3.442400e+00 1.000000e-03
         vertex -7.517735e-01 -2.787944e+00 1.000000e-03
      endloop
   endfacet
   facet normal 0.000000e+00 1.000000e+00 0.000000e+00
      outer loop
         vertex -7.517735e-01 -2.787944e+00 1.000000e-03
         vertex -2.500000e-01 -2.787944e+00 1.000000e-03
         vertex -2.500000e-01 -2.787944e+00 -8.010208e-10
      endloop
   endfacet
   facet normal 0.000000e+00 1.000000e+00 0.000000e+00
      outer loop
         vertex -2.500000e-01 -2.787944e+00 -8.010208e-10
         vertex -7.517735e-01 -2.787944e+00 -4.806125e-09
         vertex -7.517735e-01 -2.787944e+00 1.000000e-03
      endloop
   endfacet
   facet normal -0.000000e+00 1.000000e+00 0.000000e+00
      outer loop
         vertex 7.517735e-01 -2.787944e+00 -4.806125e-09
         vertex 2.500000e-01 -2.787944e+00 -8.010208e-10
         vertex 7.517735e-01 -2.787944e+00 1.000000e-03
      endloop
   endfacet
   facet normal -0.000000e+00 1.000000e+00 0.000000e+00
      outer loop
         vertex 2.500000e-01 -2.787944e+00 -8.010208e-10
         vertex 2.500000e-01 -2.787944e+00 1.000000e-03
         vertex 7.517735e-01 -2.787944e+00 1.000000e-03
      endloop
   endfacet
   facet normal -0.000000e+00 -1.000000e+00 -0.000000e+00
      outer loop
         vertex -1.002500e+02 -2.500000e-01 0.000000e+00
         vertex -1.002500e+02 -2.500000e-01 1.000000e-03
         vertex -1.731440e+02 -2.500000e-01 1.000000e-03
      endloop
   endfacet
   facet normal 0.000000e+00 -1.000000e+00 0.000000e+00
      outer loop
         vertex -1.731440e+02 -2.500000e-01 1.000000e-03
         vertex -1.731440e+02 -2.500000e-01 0.000000e+00
         vertex -1.002500e+02 -2.500000e-01 0.000000e+00
      endloop
   endfacet
   facet normal -1.000000e+00 0.000000e+00 0.000000e+00
      outer loop
         vertex -1.002500e+02 -8.620423e+01 0.000000e+00
         vertex -1.002500e+02 -8.620423e+01 1.000000e-03
         vertex -1.002500e+02 -2.500000e-01 1.000000e-03
      endloop
   endfacet
   facet normal -1.000000e+00 0.000000e+00 0.000000e+00
      outer loop
         vertex -1.002500e+02 -2.500000e-01 1.000000e-03
         vertex -1.002500e+02 -2.500000e-01 0.000000e+00
         vertex -1.002500e+02 -8.620423e+01 0.000000e+00
      endloop
   endfacet
   facet normal -0.000000e+00 -1.000000e+00 -0.000000e+00
      outer loop
         vertex -9.975000e+01 -8.620423e+01 0.000000e+00
         vertex -9.975000e+01 -8.620423e+01 1.000000e-03
         vertex -1.002500e+02 -8.620423e+01 1.000000e-03
      endloop
   endfacet
   facet normal 0.000000e+00 -1.000000e+00 0.000000e+00
      outer loop
         vertex -1.002500e+02 -8.620423e+01 1.000000e-03
         vertex -1.002500e+02 -8.620423e+01 0.000000e+00
         vertex -9.975000e+01 -8.620423e+01 0.000000e+00
      endloop
   endfacet
   facet normal 1.000000e+00 0.000000e+00 0.000000e+00
      outer loop
         vertex -9.975000e+01 -2.500000e-01 0.000000e+00
         vertex -9.975000e+01 -2.500000e-01 1.000000e-03
         vertex -9.975000e+01 -8.620423e+01 1.000000e-03
      endloop
   endfacet
   facet normal 1.000000e+00 0.000000e+00 0.000000e+00
      outer loop
         vertex -9.975000e+01 -8.620423e+01 1.000000e-03
         vertex -9.975000e+01 -8.620423e+01 0.000000e+00
         vertex -9.975000e+01 -2.500000e-01 0.000000e+00
      endloop
   endfacet
   facet normal 0.000000e+00 -1.000000e+00 0.000000e+00
      outer loop
         vertex -9.975000e+01 -2.500000e-01 1.000000e-03
         vertex -9.975000e+01 -2.500000e-01 0.000000e+00
         vertex -2.500000e-01 -2.500000e-01 0.000000e+00
      endloop
   endfacet
   facet normal -0.000000e+00 -1.000000e+00 -0.000000e+00
      outer loop
         vertex -2.500000e-01 -2.500000e-01 0.000000e+00
         vertex -2.500000e-01 -2.500000e-01 1.000000e-03
         vertex -9.975000e+01 -2.500000e-01 1.000000e-03
      endloop
   endfacet
   facet normal 0.000000e+00 -1.000000e+00 0.000000e+00
      outer loop
         vertex 2.500000e-01 -8.480443e+01 1.000000e-03
         vertex -2.500000e-01 -8.480443e+01 1.000000e-03
         vertex -2.500000e-01 -8.480443e+01 0.000000e+00
      endloop
   endfacet
   facet normal 0.000000e+00 -1.000000e+00 0.000000e+00
      outer loop
         vertex -2.500000e-01 -8.480443e+01 0.000000e+00
         vertex 2.500000e-01 -8.480443e+01 0.000000e+00
         vertex 2.500000e-01 -8.480443e+01 1.000000e-03
      endloop
   endfacet
   facet normal -0.000000e+00 -1.000000e+00 -0.000000e+00
      outer loop
         vertex 9.975000e+01 -2.500000e-01 0.000000e+00
         vertex 9.975000e+01 -2.500000e-01 1.000000e-03
         vertex 2.500000e-01 -2.500000e-01 1.000000e-03
      endloop
   endfacet
   facet normal 0.000000e+00 -1.000000e+00 0.000000e+00
      outer loop
         vertex 2.500000e-01 -2.500000e-01 1.000000e-03
         vertex 2.500000e-01 -2.500000e-01 0.000000e+00
         vertex 9.975000e+01 -2.500000e-01 0.000000e+00
      endloop
   endfacet
   facet normal -1.000000e+00 0.000000e+00 0.000000e+00
      outer loop
         vertex 9.975000e+01 -8.477669e+01 0.000000e+00
         vertex 9.975000e+01 -8.477669e+01 1.000000e-03
         vertex 9.975000e+01 -2.500000e-01 1.000000e-03
      endloop
   endfacet
   facet normal -1.000000e+00 0.000000e+00 0.000000e+00
      outer loop
         vertex 9.975000e+01 -2.500000e-01 1.000000e-03
         vertex 9.975000e+01 -2.500000e-01 0.000000e+00
         vertex 9.975000e+01 -8.477669e+01 0.000000e+00
      endloop
   endfacet
   facet normal -0.000000e+00 -1.000000e+00 -0.000000e+00
      outer loop
         vertex 1.002500e+02 -8.477669e+01 0.000000e+00
         vertex 1.002500e+02 -8.477669e+01 1.000000e-03
         vertex 9.975000e+01 -8.477669e+01 1.000000e-03
      endloop
   endfacet
   facet normal 0.000000e+00 -1.000000e+00 0.000000e+00
      outer loop
         vertex 9.975000e+01 -8.477669e+01 1.000000e-03
         vertex 9.975000e+01 -8.477669e+01 0.000000e+00
         vertex 1.002500e+02 -8.477669e+01 0.000000e+00
      endloop
   endfacet
   facet normal 1.000000e+00 0.000000e+00 0.000000e+00
      outer loop
         vertex 1.002500e+02 -2.500000e-01 0.000000e+00
         vertex 1.002500e+02 -2.500000e-01 1.000000e-03
         vertex 1.002500e+02 -8.477669e+01 1.000000e-03
      endloop
   endfacet
   facet normal 1.000000e+00 0.000000e+00 0.000000e+00
      outer loop
         vertex 1.002500e+02 -8.477669e+01 1.000000e-03
         vertex 1.002500e+02 -8.477669e+01 0.000000e+00
         vertex 1.002500e+02 -2.500000e-01 0.000000e+00
      endloop
   endfacet
   facet normal -0.000000e+00 -1.000000e+00 -0.000000e+00
      outer loop
         vertex 1.729031e+02 -2.500000e-01 0.000000e+00
         vertex 1.729031e+02 -2.500000e-01 1.000000e-03
         vertex 1.002500e+02 -2.500000e-01 1.000000e-03
      endloop
   endfacet
   facet normal 0.000000e+00 -1.000000e+00 0.000000e+00
      outer loop
         vertex 1.002500e+02 -2.500000e-01 1.000000e-03
         vertex 1.002500e+02 -2.500000e-01 0.000000e+00
         vertex 1.729031e+02 -2.500000e-01 0.000000e+00
      endloop
   endfacet
   facet normal 1.000000e+00 0.000000e+00 0.000000e+00
      outer loop
         vertex 1.729031e+02 2.500000e-01 0.000000e+00
         vertex 1.729031e+02 2.500000e-01 1.000000e-03
         vertex 1.729031e+02 -2.500000e-01 1.000000e-03
      endloop
   endfacet
   facet normal 1.000000e+00 0.000000e+00 0.000000e+00
      outer loop
         vertex 1.729031e+02 -2.500000e-01 1.000000e-03
         vertex 1.729031e+02 -2.500000e-01 0.000000e+00
         vertex 1.729031e+02 2.500000e-01 0.000000e+00
      endloop
   endfacet
   facet normal -0.000000e+00 1.000000e+00 0.000000e+00
      outer loop
         vertex 1.002500e+02 2.500000e-01 0.000000e+00
         vertex 1.002500e+02 2.500000e-01 1.000000e-03
         vertex 1.729031e+02 2.500000e-01 1.000000e-03
      endloop
   endfacet
   facet normal 0.000000e+00 1.000000e+00 -0.000000e+00
      outer loop
         vertex 1.729031e+02 2.500000e-01 1.000000e-03
         vertex 1.729031e+02 2.500000e-01 0.000000e+00
         vertex 1.002500e+02 2.500000e-01 0.000000e+00
      endloop
   endfacet
   facet normal 1.000000e+00 0.000000e+00 0.000000e+00
      outer loop
         vertex 1.002500e+02 8.468045e+01 0.000000e+00
         vertex 1.002500e+02 8.468045e+01 1.000000e-03
         vertex 1.002500e+02 2.500000e-01 1.000000e-03
      endloop
   endfacet
   facet normal 1.000000e+00 0.000000e+00 0.000000e+00
      outer loop
         vertex 1.002500e+02 2.500000e-01 1.000000e-03
         vertex 1.002500e+02 2.500000e-01 0.000000e+00
         vertex 1.002500e+02 8.468045e+01 0.000000e+00
      endloop
   endfacet
   facet normal -0.000000e+00 1.000000e+00 0.000000e+00
      outer loop
         vertex 9.975000e+01 8.468045e+01 0.000000e+00
         vertex 9.975000e+01 8.468045e+01 1.000000e-03
         vertex 1.002500e+02 8.468045e+01 1.000000e-03
      endloop
   endfacet
   facet normal 0.000000e+00 1.000000e+00 -0.000000e+00
      outer loop
         vertex 1.002500e+02 8.468045e+01 1.000000e-03
         vertex 1.002500e+02 8.468045e+01 0.000000e+00
         vertex 9.975000e+01 8.468045e+01 0.000000e+00
      endloop
   endfacet
   facet normal -1.000000e+00 0.000000e+00 0.000000e+00
      outer loop
         vertex 9.975000e+01 2.500000e-01 0.000000e+00
         vertex 9.975000e+01 2.500000e-01 1.000000e-03
         vertex 9.975000e+01 8.468045e+01 1.000000e-03
      endloop
   endfacet
   facet normal -1.000000e+00 0.000000e+00 0.000000e+00
      outer loop
         vertex 9.975000e+01 8.468045e+01 1.000000e-03
         vertex 9.975000e+01 8.468045e+01 0.000000e+00
         vertex 9.975000e+01 2.500000e-01 0.000000e+00
      endloop
   endfacet
   facet normal 0.000000e+00 1.000000e+00 -0.000000e+00
      outer loop
         vertex 9.975000e+01 2.500000e-01 1.000000e-03
         vertex 9.975000e+01 2.500000e-01 0.000000e+00
         vertex 2.500000e-01 2.500000e-01 0.000000e+00
      endloop
   endfacet
   facet normal -0.000000e+00 1.000000e+00 0.000000e+00
      outer loop
         vertex 2.500000e-01 2.500000e-01 0.000000e+00
         vertex 2.500000e-01 2.500000e-01 1.000000e-03
         vertex 9.975000e+01 2.500000e-01 1.000000e-03
      endloop
   endfacet
   facet normal 1.000000e+00 0.000000e+00 0.000000e+00
      outer loop
         vertex 2.500000e-01 8.480025e+01 0.000000e+00
         vertex 2.500000e-01 8.480025e+01 1.000000e-03
         vertex 2.500000e-01 2.500000e-01 1.000000e-03
      endloop
   endfacet
   facet normal 1.000000e+00 0.000000e+00 0.000000e+00
      outer loop
         vertex 2.500000e-01 2.500000e-01 1.000000e-03
         vertex 2.500000e-01 2.500000e-01 0.000000e+00
         vertex 2.500000e-01 8.480025e+01 0.000000e+00
      endloop
   endfacet
   facet normal 8.361524e-03 9.999650e-01 0.000000e+00
      outer loop
         vertex -2.500000e-01 8.480443e+01 1.000000e-03
         vertex 2.500000e-01 8.480025e+01 1.000000e-03
         vertex 2.500000e-01 8.480025e+01 0.000000e+00
      endloop
   endfacet
   facet normal 8.361524e-03 9.999650e-01 -0.000000e+00
      outer loop
         vertex 2.500000e-01 8.480025e+01 0.000000e+00
         vertex -2.500000e-01 8.480443e+01 0.000000e+00
         vertex -2.500000e-01 8.480443e+01 1.000000e-03
      endloop
   endfacet
   facet normal -1.000000e+00 0.000000e+00 0.000000e+00
      outer loop
         vertex -2.500000e-01 8.480443e+01 1.000000e-03
         vertex -2.500000e-01 8.480443e+01 0.000000e+00
         vertex -2.500000e-01 2.500000e-01 0.000000e+00
      endloop
   endfacet
   facet normal -1.000000e+00 0.000000e+00 0.000000e+00
      outer loop
         vertex -2.500000e-01 2.500000e-01 0.000000e+00
         vertex -2.500000e-01 2.500000e-01 1.000000e-03
         vertex -2.500000e-01 8.480443e+01 1.000000e-03
      endloop
   endfacet
   facet normal -0.000000e+00 1.000000e+00 0.000000e+00
      outer loop
         vertex -9.975000e+01 2.500000e-01 0.000000e+00
         vertex -9.975000e+01 2.500000e-01 1.000000e-03
         vertex -2.500000e-01 2.500000e-01 1.000000e-03
      endloop
   endfacet
   facet normal 0.000000e+00 1.000000e+00 -0.000000e+00
      outer loop
         vertex -2.500000e-01 2.500000e-01 1.000000e-03
         vertex -2.500000e-01 2.500000e-01 0.000000e+00
         vertex -9.975000e+01 2.500000e-01 0.000000e+00
      endloop
   endfacet
   facet normal 1.000000e+00 0.000000e+00 0.000000e+00
      outer loop
         vertex -9.975000e+01 8.492065e+01 0.000000e+00
         vertex -9.975000e+01 8.492065e+01 1.000000e-03
         vertex -9.975000e+01 2.500000e-01 1.000000e-03
      endloop
   endfacet
   facet normal 1.000000e+00 0.000000e+00 0.000000e+00
      outer loop
         vertex -9.975000e+01 2.500000e-01 1.000000e-03
         vertex -9.975000e+01 2.500000e-01 0.000000e+00
         vertex -9.975000e+01 8.492065e+01 0.000000e+00
      endloop
   endfacet
   facet normal -0.000000e+00 1.000000e+00 0.000000e+00
      outer loop
         vertex -1.002500e+02 8.492065e+01 0.000000e+00
         vertex -1.002500e+02 8.492065e+01 1.000000e-03
         vertex -9.975000e+01 8.492065e+01 1.000000e-03
      endloop
   endfacet
   facet normal 0.000000e+00 1.000000e+00 -0.000000e+00
      outer loop
         vertex -9.975000e+01 8.492065e+01 1.000000e-03
         vertex -9.975000e+01 8.492065e+01 0.000000e+00
         vertex -1.002500e+02 8.492065e+01 0.000000e+00
      endloop
   endfacet
   facet normal -1.000000e+00 0.000000e+00 0.000000e+00
      outer loop
         vertex -1.002500e+02 2.500000e-01 0.000000e+00
         vertex -1.002500e+02 2.500000e-01 1.000000e-03
         vertex -1.002500e+02 8.492065e+01 1.000000e-03
      endloop
   endfacet
   facet normal -1.000000e+00 0.000000e+00 0.000000e+00
      outer loop
         vertex -1.002500e+02 8.492065e+01 1.000000e-03
         vertex -1.002500e+02 8.492065e+01 0.000000e+00
         vertex -1.002500e+02 2.500000e-01 0.000000e+00
      endloop
   endfacet
   facet normal -0.000000e+00 1.000000e+00 0.000000e+00
      outer loop
         vertex -1.731440e+02 2.500000e-01 0.000000e+00
         vertex -1.731440e+02 2.500000e-01 1.000000e-03
         vertex -1.002500e+02 2.500000e-01 1.000000e-03
      endloop
   endfacet
   facet normal 0.000000e+00 1.000000e+00 -0.000000e+00
      outer loop
         vertex -1.002500e+02 2.500000e-01 1.000000e-03
         vertex -1.002500e+02 2.500000e-01 0.000000e+00
         vertex -1.731440e+02 2.500000e-01 0.000000e+00
      endloop
   endfacet
   facet normal -1.000000e+00 0.000000e+00 0.000000e+00
      outer loop
         vertex -1.731440e+02 -2.500000e-01 0.000000e+00
         vertex -1.731440e+02 -2.500000e-01 1.000000e-03
         vertex -1.731440e+02 2.500000e-01 1.000000e-03
      endloop
   endfacet
   facet normal -1.000000e+00 0.000000e+00 0.000000e+00
      outer loop
         vertex -1.731440e+02 2.500000e-01 1.000000e-03
         vertex -1.731440e+02 2.500000e-01 0.000000e+00
         vertex -1.731440e+02 -2.500000e-01 0.000000e+00
      endloop
   endfacet
   facet normal -9.994774e-01 -3.232647e-02 0.000000e+00
      outer loop
         vertex -1.513745e+00 -2.514380e+00 1.000000e-03
         vertex -1.513745e+00 -2.514380e+00 -4.806125e-09
         vertex -1.506932e+00 -2.725031e+00 -4.806125e-09
      endloop
   endfacet
   facet normal -9.994774e-01 -3.232647e-02 -0.000000e+00
      outer loop
         vertex -1.506932e+00 -2.725031e+00 -4.806125e-09
         vertex -1.506932e+00 -2.725031e+00 1.000000e-03
         vertex -1.513745e+00 -2.514380e+00 1.000000e-03
      endloop
   endfacet
   facet normal 8.487210e-01 -5.288408e-01 0.000000e+00
      outer loop
         vertex -1.506932e+00 -2.725031e+00 1.000000e-03
         vertex -1.506932e+00 -2.725031e+00 -4.806125e-09
         vertex -7.131366e-01 -1.451092e+00 -4.806125e-09
      endloop
   endfacet
   facet normal 8.487210e-01 -5.288408e-01 0.000000e+00
      outer loop
         vertex -7.131366e-01 -1.451092e+00 -4.806125e-09
         vertex -7.131366e-01 -1.451092e+00 1.000000e-03
         vertex -1.506932e+00 -2.725031e+00 1.000000e-03
      endloop
   endfacet
   facet normal 9.954633e-01 -9.514585e-02 0.000000e+00
      outer loop
         vertex -7.131366e-01 -1.451092e+00 1.000000e-03
         vertex -7.131366e-01 -1.451092e+00 -4.806125e-09
         vertex -6.973099e-01 -1.285505e+00 -4.806125e-09
      endloop
   endfacet
   facet normal 9.954633e-01 -9.514585e-02 0.000000e+00
      outer loop
         vertex -6.973099e-01 -1.285505e+00 -4.806125e-09
         vertex -6.973099e-01 -1.285505e+00 1.000000e-03
         vertex -7.131366e-01 -1.451092e+00 1.000000e-03
      endloop
   endfacet
   facet normal -7.524157e-01 6.586885e-01 0.000000e+00
      outer loop
         vertex -6.973099e-01 -1.285505e+00 1.000000e-03
         vertex -6.973099e-01 -1.285505e+00 -4.806125e-09
         vertex -1.133522e+00 -1.783788e+00 -4.806125e-09
      endloop
   endfacet
   facet normal -7.524157e-01 6.586885e-01 0.000000e+00
      outer loop
         vertex -1.133522e+00 -1.783788e+00 -4.806125e-09
         vertex -1.133522e+00 -1.783788e+00 1.000000e-03
         vertex -6.973099e-01 -1.285505e+00 1.000000e-03
      endloop
   endfacet
   facet normal 7.733062e-01 6.340328e-01 -0.000000e+00
      outer loop
         vertex -1.133522e+00 -1.783788e+00 1.000000e-03
         vertex -1.133522e+00 -1.783788e+00 -4.806125e-09
         vertex -1.553709e+00 -1.271301e+00 -4.806125e-09
      endloop
   endfacet
   facet normal 7.733062e-01 6.340328e-01 0.000000e+00
      outer loop
         vertex -1.553709e+00 -1.271301e+00 -4.806125e-09
         vertex -1.553709e+00 -1.271301e+00 1.000000e-03
         vertex -1.133522e+00 -1.783788e+00 1.000000e-03
      endloop
   endfacet
   facet normal -8.196812e-01 5.728200e-01 0.000000e+00
      outer loop
         vertex -1.553709e+00 -1.271301e+00 1.000000e-03
         vertex -1.553709e+00 -1.271301e+00 -4.806125e-09
         vertex -1.639928e+00 -1.394678e+00 -4.806125e-09
      endloop
   endfacet
   facet normal -8.196812e-01 5.728200e-01 0.000000e+00
      outer loop
         vertex -1.639928e+00 -1.394678e+00 -4.806125e-09
         vertex -1.639928e+00 -1.394678e+00 1.000000e-03
         vertex -1.553709e+00 -1.271301e+00 1.000000e-03
      endloop
   endfacet
   facet normal -7.543229e-01 -6.565036e-01 0.000000e+00
      outer loop
         vertex -1.639928e+00 -1.394678e+00 1.000000e-03
         vertex -1.639928e+00 -1.394678e+00 -4.806125e-09
         vertex -1.196298e+00 -1.904410e+00 -4.806125e-09
      endloop
   endfacet
   facet normal -7.543229e-01 -6.565036e-01 -0.000000e+00
      outer loop
         vertex -1.196298e+00 -1.904410e+00 -4.806125e-09
         vertex -1.196298e+00 -1.904410e+00 1.000000e-03
         vertex -1.639928e+00 -1.394678e+00 1.000000e-03
      endloop
   endfacet
   facet normal -8.870599e-01 4.616543e-01 0.000000e+00
      outer loop
         vertex -1.196298e+00 -1.904410e+00 1.000000e-03
         vertex -1.196298e+00 -1.904410e+00 -4.806125e-09
         vertex -1.513745e+00 -2.514380e+00 -4.806125e-09
      endloop
   endfacet
   facet normal -8.870599e-01 4.616543e-01 0.000000e+00
      outer loop
         vertex -1.513745e+00 -2.514380e+00 -4.806125e-09
         vertex -1.513745e+00 -2.514380e+00 1.000000e-03
         vertex -1.196298e+00 -1.904410e+00 1.000000e-03
      endloop
   endfacet
   facet normal -0.000000e+00 0.000000e+00 1.000000e+00
      outer loop
         vertex -1.196298e+00 -1.904410e+00 1.000000e-03
         vertex -1.513745e+00 -2.514380e+00 1.000000e-03
         vertex -1.506932e+00 -2.725031e+00 1.000000e-03
      endloop
   endfacet
   facet normal 0.000000e+00 0.000000e+00 1.000000e+00
      outer loop
         vertex -1.506932e+00 -2.725031e+00 1.000000e-03
         vertex -7.131366e-01 -1.451092e+00 1.000000e-03
         vertex -1.196298e+00 -1.904410e+00 1.000000e-03
      endloop
   endfacet
   facet normal 0.000000e+00 0.000000e+00 1.000000e+00
      outer loop
         vertex -7.131366e-01 -1.451092e+00 1.000000e-03
         vertex -6.973099e-01 -1.285505e+00 1.000000e-03
         vertex -1.133522e+00 -1.783788e+00 1.000000e-03
      endloop
   endfacet
   facet normal 0.000000e+00 0.000000e+00 1.000000e+00
      outer loop
         vertex -1.133522e+00 -1.783788e+00 1.000000e-03
         vertex -1.553709e+00 -1.271301e+00 1.000000e-03
         vertex -1.639928e+00 -1.394678e+00 1.000000e-03
      endloop
   endfacet
   facet normal 0.000000e+00 -0.000000e+00 1.000000e+00
      outer loop
         vertex -1.639928e+00 -1.394678e+00 1.000000e-03
         vertex -1.196298e+00 -1.904410e+00 1.000000e-03
         vertex -1.133522e+00 -1.783788e+00 1.000000e-03
      endloop
   endfacet
   facet normal 0.000000e+00 0.000000e+00 1.000000e+00
      outer loop
         vertex -1.196298e+00 -1.904410e+00 1.000000e-03
         vertex -7.131366e-01 -1.451092e+00 1.000000e-03
         vertex -1.133522e+00 -1.783788e+00 1.000000e-03
      endloop
   endfacet
   facet normal 0.000000e+00 0.000000e+00 -1.000000e+00
      outer loop
         vertex -1.196298e+00 -1.904410e+00 -4.806125e-09
         vertex -1.506932e+00 -2.725031e+00 -4.806125e-09
         vertex -1.513745e+00 -2.514380e+00 -4.806125e-09
      endloop
   endfacet
   facet normal 0.000000e+00 0.000000e+00 -1.000000e+00
      outer loop
         vertex -1.196298e+00 -1.904410e+00 -4.806125e-09
         vertex -7.131366e-01 -1.451092e+00 -4.806125e-09
         vertex -1.506932e+00 -2.725031e+00 -4.806125e-09
      endloop
   endfacet
   facet normal 0.000000e+00 0.000000e+00 -1.000000e+00
      outer loop
         vertex -1.133522e+00 -1.783788e+00 -4.806125e-09
         vertex -6.973099e-01 -1.285505e+00 -4.806125e-09
         vertex -7.131366e-01 -1.451092e+00 -4.806125e-09
      endloop
   endfacet
   facet normal 0.000000e+00 -0.000000e+00 -1.000000e+00
      outer loop
         vertex -1.639928e+00 -1.394678e+00 -4.806125e-09
         vertex -1.553709e+00 -1.271301e+00 -4.806125e-09
         vertex -1.133522e+00 -1.783788e+00 -4.806125e-09
      endloop
   endfacet
   facet normal 0.000000e+00 0.000000e+00 -1.000000e+00
      outer loop
         vertex -1.133522e+00 -1.783788e+00 -4.806125e-09
         vertex -1.196298e+00 -1.904410e+00 -4.806125e-09
         vertex -1.639928e+00 -1.394678e+00 -4.806125e-09
      endloop
   endfacet
   facet normal 0.000000e+00 0.000000e+00 -1.000000e+00
      outer loop
         vertex -1.133522e+00 -1.783788e+00 -4.806125e-09
         vertex -7.131366e-01 -1.451092e+00 -4.806125e-09
         vertex -1.196298e+00 -1.904410e+00 -4.806125e-09
      endloop
   endfacet
endsolid
