solid 
   facet normal 0.000000e+00 0.000000e+00 1.000000e+00
      outer loop
         vertex -1.731440e+02 2.500000e-01 1.000000e-03
         vertex -1.731440e+02 -2.500000e-01 1.000000e-03
         vertex -1.002500e+02 -2.500000e-01 1.000000e-03
      endloop
   endfacet
   facet normal 0.000000e+00 0.000000e+00 1.000000e+00
      outer loop
         vertex -1.002500e+02 -2.500000e-01 1.000000e-03
         vertex -1.002500e+02 -8.620423e+01 1.000000e-03
         vertex -9.975000e+01 -8.620423e+01 1.000000e-03
      endloop
   endfacet
   facet normal 0.000000e+00 0.000000e+00 1.000000e+00
      outer loop
         vertex -9.975000e+01 -8.620423e+01 1.000000e-03
         vertex -9.975000e+01 -2.500000e-01 1.000000e-03
         vertex -1.002500e+02 -2.500000e-01 1.000000e-03
      endloop
   endfacet
   facet normal 0.000000e+00 -0.000000e+00 1.000000e+00
      outer loop
         vertex -9.975000e+01 -2.500000e-01 1.000000e-03
         vertex -2.500000e-01 -2.500000e-01 1.000000e-03
         vertex -2.500000e-01 2.500000e-01 1.000000e-03
      endloop
   endfacet
   facet normal 0.000000e+00 0.000000e+00 1.000000e+00
      outer loop
         vertex -2.500000e-01 -2.500000e-01 1.000000e-03
         vertex -2.500000e-01 -8.480443e+01 1.000000e-03
         vertex 2.500000e-01 -8.480443e+01 1.000000e-03
      endloop
   endfacet
   facet normal 0.000000e+00 0.000000e+00 1.000000e+00
      outer loop
         vertex 2.500000e-01 -8.480443e+01 1.000000e-03
         vertex 2.500000e-01 -2.500000e-01 1.000000e-03
         vertex -2.500000e-01 -2.500000e-01 1.000000e-03
      endloop
   endfacet
   facet normal 0.000000e+00 -0.000000e+00 1.000000e+00
      outer loop
         vertex 2.500000e-01 -2.500000e-01 1.000000e-03
         vertex 9.975000e+01 -2.500000e-01 1.000000e-03
         vertex 9.975000e+01 2.500000e-01 1.000000e-03
      endloop
   endfacet
   facet normal 0.000000e+00 0.000000e+00 1.000000e+00
      outer loop
         vertex 9.975000e+01 -2.500000e-01 1.000000e-03
         vertex 9.975000e+01 -8.477669e+01 1.000000e-03
         vertex 1.002500e+02 -8.477669e+01 1.000000e-03
      endloop
   endfacet
   facet normal 0.000000e+00 0.000000e+00 1.000000e+00
      outer loop
         vertex 1.002500e+02 -8.477669e+01 1.000000e-03
         vertex 1.002500e+02 -2.500000e-01 1.000000e-03
         vertex 9.975000e+01 -2.500000e-01 1.000000e-03
      endloop
   endfacet
   facet normal 0.000000e+00 -0.000000e+00 1.000000e+00
      outer loop
         vertex 1.002500e+02 -2.500000e-01 1.000000e-03
         vertex 1.729031e+02 -2.500000e-01 1.000000e-03
         vertex 1.729031e+02 2.500000e-01 1.000000e-03
      endloop
   endfacet
   facet normal -0.000000e+00 0.000000e+00 1.000000e+00
      outer loop
         vertex 1.729031e+02 2.500000e-01 1.000000e-03
         vertex 1.002500e+02 2.500000e-01 1.000000e-03
         vertex 1.002500e+02 -2.500000e-01 1.000000e-03
      endloop
   endfacet
   facet normal 0.000000e+00 0.000000e+00 1.000000e+00
      outer loop
         vertex 1.002500e+02 2.500000e-01 1.000000e-03
         vertex 1.002500e+02 8.468045e+01 1.000000e-03
         vertex 9.975000e+01 8.468045e+01 1.000000e-03
      endloop
   endfacet
   facet normal 0.000000e+00 0.000000e+00 1.000000e+00
      outer loop
         vertex 9.975000e+01 8.468045e+01 1.000000e-03
         vertex 9.975000e+01 2.500000e-01 1.000000e-03
         vertex 1.002500e+02 2.500000e-01 1.000000e-03
      endloop
   endfacet
   facet normal -0.000000e+00 0.000000e+00 1.000000e+00
      outer loop
         vertex 9.975000e+01 2.500000e-01 1.000000e-03
         vertex 2.500000e-01 2.500000e-01 1.000000e-03
         vertex 2.500000e-01 -2.500000e-01 1.000000e-03
      endloop
   endfacet
   facet normal 1.629815e-09 3.154869e-10 1.000000e+00
      outer loop
         vertex 2.500000e-01 2.500000e-01 1.000000e-03
         vertex 2.500000e-01 2.833014e+00 9.999992e-04
         vertex -2.500000e-01 2.833014e+00 1.000000e-03
      endloop
   endfacet
   facet normal -1.624054e-09 0.000000e+00 1.000000e+00
      outer loop
         vertex 2.500000e-01 2.833014e+00 9.999992e-04
         vertex 7.517735e-01 2.833014e+00 1.000000e-03
         vertex 2.500000e-01 3.487470e+00 9.999992e-04
      endloop
   endfacet
   facet normal 1.629815e-09 -1.002188e-11 1.000000e+00
      outer loop
         vertex 2.500000e-01 3.487470e+00 9.999992e-04
         vertex 2.500000e-01 8.480025e+01 1.000000e-03
         vertex -2.500000e-01 3.487470e+00 1.000000e-03
      endloop
   endfacet
   facet normal 0.000000e+00 0.000000e+00 1.000000e+00
      outer loop
         vertex 2.500000e-01 8.480025e+01 1.000000e-03
         vertex -2.500000e-01 8.480443e+01 1.000000e-03
         vertex -2.500000e-01 3.487470e+00 1.000000e-03
      endloop
   endfacet
   facet normal 0.000000e+00 0.000000e+00 1.000000e+00
      outer loop
         vertex -2.500000e-01 3.487470e+00 1.000000e-03
         vertex -7.517735e-01 2.833014e+00 1.000000e-03
         vertex -2.500000e-01 2.833014e+00 1.000000e-03
      endloop
   endfacet
   facet normal 0.000000e+00 0.000000e+00 1.000000e+00
      outer loop
         vertex -2.500000e-01 2.833014e+00 1.000000e-03
         vertex -2.500000e-01 2.500000e-01 1.000000e-03
         vertex 2.500000e-01 2.500000e-01 1.000000e-03
      endloop
   endfacet
   facet normal -0.000000e+00 0.000000e+00 1.000000e+00
      outer loop
         vertex -2.500000e-01 2.500000e-01 1.000000e-03
         vertex -9.975000e+01 2.500000e-01 1.000000e-03
         vertex -9.975000e+01 -2.500000e-01 1.000000e-03
      endloop
   endfacet
   facet normal 0.000000e+00 0.000000e+00 1.000000e+00
      outer loop
         vertex -9.975000e+01 2.500000e-01 1.000000e-03
         vertex -9.975000e+01 8.492065e+01 1.000000e-03
         vertex -1.002500e+02 8.492065e+01 1.000000e-03
      endloop
   endfacet
   facet normal 0.000000e+00 0.000000e+00 1.000000e+00
      outer loop
         vertex -1.002500e+02 8.492065e+01 1.000000e-03
         vertex -1.002500e+02 2.500000e-01 1.000000e-03
         vertex -9.975000e+01 2.500000e-01 1.000000e-03
      endloop
   endfacet
   facet normal -0.000000e+00 0.000000e+00 1.000000e+00
      outer loop
         vertex -1.002500e+02 2.500000e-01 1.000000e-03
         vertex -1.731440e+02 2.500000e-01 1.000000e-03
         vertex -1.002500e+02 -2.500000e-01 1.000000e-03
      endloop
   endfacet
   facet normal 0.000000e+00 -0.000000e+00 1.000000e+00
      outer loop
         vertex -1.002500e+02 -2.500000e-01 1.000000e-03
         vertex -9.975000e+01 -2.500000e-01 1.000000e-03
         vertex -9.975000e+01 2.500000e-01 1.000000e-03
      endloop
   endfacet
   facet normal 0.000000e+00 0.000000e+00 1.000000e+00
      outer loop
         vertex -2.500000e-01 2.500000e-01 1.000000e-03
         vertex -2.500000e-01 -2.500000e-01 1.000000e-03
         vertex 2.500000e-01 -2.500000e-01 1.000000e-03
      endloop
   endfacet
   facet normal 0.000000e+00 0.000000e+00 1.000000e+00
      outer loop
         vertex 9.975000e+01 2.500000e-01 1.000000e-03
         vertex 9.975000e+01 -2.500000e-01 1.000000e-03
         vertex 1.002500e+02 -2.500000e-01 1.000000e-03
      endloop
   endfacet
   facet normal 0.000000e+00 0.000000e+00 1.000000e+00
      outer loop
         vertex 1.002500e+02 -2.500000e-01 1.000000e-03
         vertex 1.002500e+02 2.500000e-01 1.000000e-03
         vertex 9.975000e+01 2.500000e-01 1.000000e-03
      endloop
   endfacet
   facet normal 0.000000e+00 0.000000e+00 1.000000e+00
      outer loop
         vertex 2.500000e-01 -2.500000e-01 1.000000e-03
         vertex 2.500000e-01 2.500000e-01 1.000000e-03
         vertex -2.500000e-01 2.500000e-01 1.000000e-03
      endloop
   endfacet
   facet normal 1.629815e-09 -0.000000e+00 1.000000e+00
      outer loop
         vertex -2.500000e-01 2.833014e+00 1.000000e-03
         vertex 2.500000e-01 2.833014e+00 9.999992e-04
         vertex 2.500000e-01 3.487470e+00 9.999992e-04
      endloop
   endfacet
   facet normal 1.629815e-09 0.000000e+00 1.000000e+00
      outer loop
         vertex 2.500000e-01 3.487470e+00 9.999992e-04
         vertex -2.500000e-01 3.487470e+00 1.000000e-03
         vertex -2.500000e-01 2.833014e+00 1.000000e-03
      endloop
   endfacet
   facet normal -0.000000e+00 0.000000e+00 1.000000e+00
      outer loop
         vertex -9.975000e+01 2.500000e-01 1.000000e-03
         vertex -1.002500e+02 2.500000e-01 1.000000e-03
         vertex -1.002500e+02 -2.500000e-01 1.000000e-03
      endloop
   endfacet
   facet normal 0.000000e+00 0.000000e+00 -1.000000e+00
      outer loop
         vertex -2.500000e-01 -8.480443e+01 0.000000e+00
         vertex -2.500000e-01 -2.500000e-01 0.000000e+00
         vertex 2.500000e-01 -2.500000e-01 0.000000e+00
      endloop
   endfacet
   facet normal 0.000000e+00 0.000000e+00 -1.000000e+00
      outer loop
         vertex -2.500000e-01 -2.500000e-01 0.000000e+00
         vertex -9.975000e+01 -2.500000e-01 0.000000e+00
         vertex -9.975000e+01 2.500000e-01 0.000000e+00
      endloop
   endfacet
   facet normal 0.000000e+00 0.000000e+00 -1.000000e+00
      outer loop
         vertex -9.975000e+01 -2.500000e-01 0.000000e+00
         vertex -9.975000e+01 -8.620423e+01 0.000000e+00
         vertex -1.002500e+02 -8.620423e+01 0.000000e+00
      endloop
   endfacet
   facet normal 0.000000e+00 0.000000e+00 -1.000000e+00
      outer loop
         vertex -1.002500e+02 -8.620423e+01 0.000000e+00
         vertex -1.002500e+02 -2.500000e-01 0.000000e+00
         vertex -9.975000e+01 -2.500000e-01 0.000000e+00
      endloop
   endfacet
   facet normal 0.000000e+00 0.000000e+00 -1.000000e+00
      outer loop
         vertex -1.002500e+02 -2.500000e-01 0.000000e+00
         vertex -1.731440e+02 -2.500000e-01 0.000000e+00
         vertex -1.731440e+02 2.500000e-01 0.000000e+00
      endloop
   endfacet
   facet normal -0.000000e+00 -0.000000e+00 -1.000000e+00
      outer loop
         vertex -1.731440e+02 2.500000e-01 0.000000e+00
         vertex -1.002500e+02 2.500000e-01 0.000000e+00
         vertex -1.002500e+02 -2.500000e-01 0.000000e+00
      endloop
   endfacet
   facet normal 0.000000e+00 0.000000e+00 -1.000000e+00
      outer loop
         vertex -1.002500e+02 2.500000e-01 0.000000e+00
         vertex -1.002500e+02 8.492065e+01 0.000000e+00
         vertex -9.975000e+01 8.492065e+01 0.000000e+00
      endloop
   endfacet
   facet normal 0.000000e+00 0.000000e+00 -1.000000e+00
      outer loop
         vertex -9.975000e+01 8.492065e+01 0.000000e+00
         vertex -9.975000e+01 2.500000e-01 0.000000e+00
         vertex -1.002500e+02 2.500000e-01 0.000000e+00
      endloop
   endfacet
   facet normal -0.000000e+00 -0.000000e+00 -1.000000e+00
      outer loop
         vertex -9.975000e+01 2.500000e-01 0.000000e+00
         vertex -2.500000e-01 2.500000e-01 0.000000e+00
         vertex -2.500000e-01 -2.500000e-01 0.000000e+00
      endloop
   endfacet
   facet normal -3.956162e-09 -3.101108e-10 -1.000000e+00
      outer loop
         vertex -2.500000e-01 2.500000e-01 0.000000e+00
         vertex -2.500000e-01 2.833014e+00 -8.010208e-10
         vertex 2.500000e-01 2.833014e+00 -2.779102e-09
      endloop
   endfacet
   facet normal 7.981897e-09 0.000000e+00 -1.000000e+00
      outer loop
         vertex -2.500000e-01 2.833014e+00 -8.010208e-10
         vertex -7.517735e-01 2.833014e+00 -4.806125e-09
         vertex -2.500000e-01 3.487470e+00 -8.010208e-10
      endloop
   endfacet
   facet normal 8.236891e-14 9.850600e-12 -1.000000e+00
      outer loop
         vertex -2.500000e-01 3.487470e+00 -8.010208e-10
         vertex -2.500000e-01 8.480443e+01 0.000000e+00
         vertex 2.500000e-01 8.480025e+01 0.000000e+00
      endloop
   endfacet
   facet normal -3.943761e-09 3.410167e-11 -1.000000e+00
      outer loop
         vertex 2.500000e-01 8.480025e+01 0.000000e+00
         vertex 2.500000e-01 3.487470e+00 -2.772901e-09
         vertex -2.500000e-01 3.487470e+00 -8.010208e-10
      endloop
   endfacet
   facet normal -4.039718e-09 9.473750e-12 -1.000000e+00
      outer loop
         vertex 2.500000e-01 3.487470e+00 -2.772901e-09
         vertex 7.517735e-01 2.833014e+00 -4.806125e-09
         vertex 2.500000e-01 2.833014e+00 -2.779102e-09
      endloop
   endfacet
   facet normal -0.000000e+00 -1.075914e-09 -1.000000e+00
      outer loop
         vertex 2.500000e-01 2.833014e+00 -2.779102e-09
         vertex 2.500000e-01 2.500000e-01 0.000000e+00
         vertex -2.500000e-01 2.500000e-01 0.000000e+00
      endloop
   endfacet
   facet normal -0.000000e+00 -0.000000e+00 -1.000000e+00
      outer loop
         vertex 2.500000e-01 2.500000e-01 0.000000e+00
         vertex 9.975000e+01 2.500000e-01 0.000000e+00
         vertex 9.975000e+01 -2.500000e-01 0.000000e+00
      endloop
   endfacet
   facet normal 0.000000e+00 0.000000e+00 -1.000000e+00
      outer loop
         vertex 9.975000e+01 2.500000e-01 0.000000e+00
         vertex 9.975000e+01 8.468045e+01 0.000000e+00
         vertex 1.002500e+02 8.468045e+01 0.000000e+00
      endloop
   endfacet
   facet normal 0.000000e+00 0.000000e+00 -1.000000e+00
      outer loop
         vertex 1.002500e+02 8.468045e+01 0.000000e+00
         vertex 1.002500e+02 2.500000e-01 0.000000e+00
         vertex 9.975000e+01 2.500000e-01 0.000000e+00
      endloop
   endfacet
   facet normal -0.000000e+00 -0.000000e+00 -1.000000e+00
      outer loop
         vertex 1.002500e+02 2.500000e-01 0.000000e+00
         vertex 1.729031e+02 2.500000e-01 0.000000e+00
         vertex 1.729031e+02 -2.500000e-01 0.000000e+00
      endloop
   endfacet
   facet normal 0.000000e+00 0.000000e+00 -1.000000e+00
      outer loop
         vertex 1.729031e+02 -2.500000e-01 0.000000e+00
         vertex 1.002500e+02 -2.500000e-01 0.000000e+00
         vertex 1.002500e+02 2.500000e-01 0.000000e+00
      endloop
   endfacet
   facet normal 0.000000e+00 0.000000e+00 -1.000000e+00
      outer loop
         vertex 1.002500e+02 -2.500000e-01 0.000000e+00
         vertex 1.002500e+02 -8.477669e+01 0.000000e+00
         vertex 9.975000e+01 -2.500000e-01 0.000000e+00
      endloop
   endfacet
   facet normal 0.000000e+00 0.000000e+00 -1.000000e+00
      outer loop
         vertex 1.002500e+02 -8.477669e+01 0.000000e+00
         vertex 9.975000e+01 -8.477669e+01 0.000000e+00
         vertex 9.975000e+01 -2.500000e-01 0.000000e+00
      endloop
   endfacet
   facet normal 0.000000e+00 0.000000e+00 -1.000000e+00
      outer loop
         vertex 9.975000e+01 -2.500000e-01 0.000000e+00
         vertex 2.500000e-01 -2.500000e-01 0.000000e+00
         vertex 2.500000e-01 2.500000e-01 0.000000e+00
      endloop
   endfacet
   facet normal 0.000000e+00 0.000000e+00 -1.000000e+00
      outer loop
         vertex 2.500000e-01 -2.500000e-01 0.000000e+00
         vertex 2.500000e-01 -8.480443e+01 0.000000e+00
         vertex -2.500000e-01 -8.480443e+01 0.000000e+00
      endloop
   endfacet
   facet normal 0.000000e+00 0.000000e+00 -1.000000e+00
      outer loop
         vertex 2.500000e-01 -2.500000e-01 0.000000e+00
         vertex -2.500000e-01 -2.500000e-01 0.000000e+00
         vertex -2.500000e-01 2.500000e-01 0.000000e+00
      endloop
   endfacet
   facet normal 0.000000e+00 0.000000e+00 -1.000000e+00
      outer loop
         vertex -9.975000e+01 2.500000e-01 0.000000e+00
         vertex -9.975000e+01 -2.500000e-01 0.000000e+00
         vertex -1.002500e+02 -2.500000e-01 0.000000e+00
      endloop
   endfacet
   facet normal 0.000000e+00 0.000000e+00 -1.000000e+00
      outer loop
         vertex -1.002500e+02 -2.500000e-01 0.000000e+00
         vertex -1.002500e+02 2.500000e-01 0.000000e+00
         vertex -9.975000e+01 2.500000e-01 0.000000e+00
      endloop
   endfacet
   facet normal -3.956162e-09 0.000000e+00 -1.000000e+00
      outer loop
         vertex 2.500000e-01 2.833014e+00 -2.779102e-09
         vertex -2.500000e-01 2.833014e+00 -8.010208e-10
         vertex -2.500000e-01 3.487470e+00 -8.010208e-10
      endloop
   endfacet
   facet normal -3.943761e-09 9.473750e-12 -1.000000e+00
      outer loop
         vertex -2.500000e-01 3.487470e+00 -8.010208e-10
         vertex 2.500000e-01 3.487470e+00 -2.772901e-09
         vertex 2.500000e-01 2.833014e+00 -2.779102e-09
      endloop
   endfacet
   facet normal -0.000000e+00 -0.000000e+00 -1.000000e+00
      outer loop
         vertex -2.500000e-01 2.500000e-01 0.000000e+00
         vertex 2.500000e-01 2.500000e-01 0.000000e+00
         vertex 2.500000e-01 -2.500000e-01 0.000000e+00
      endloop
   endfacet
   facet normal 0.000000e+00 0.000000e+00 -1.000000e+00
      outer loop
         vertex 9.975000e+01 -2.500000e-01 0.000000e+00
         vertex 9.975000e+01 2.500000e-01 0.000000e+00
         vertex 1.002500e+02 2.500000e-01 0.000000e+00
      endloop
   endfacet
   facet normal 0.000000e+00 0.000000e+00 -1.000000e+00
      outer loop
         vertex 1.002500e+02 2.500000e-01 0.000000e+00
         vertex 1.002500e+02 -2.500000e-01 0.000000e+00
         vertex 9.975000e+01 -2.500000e-01 0.000000e+00
      endloop
   endfacet
   facet normal -1.000000e+00 -0.000000e+00 -0.000000e+00
      outer loop
         vertex -2.500000e-01 2.500000e-01 1.000000e-03
         vertex -2.500000e-01 2.833014e+00 1.000000e-03
         vertex -2.500000e-01 2.833014e+00 -8.010208e-10
      endloop
   endfacet
   facet normal -1.000000e+00 0.000000e+00 0.000000e+00
      outer loop
         vertex -2.500000e-01 2.833014e+00 -8.010208e-10
         vertex -2.500000e-01 2.500000e-01 0.000000e+00
         vertex -2.500000e-01 2.500000e-01 1.000000e-03
      endloop
   endfacet
   facet normal -1.000000e+00 0.000000e+00 0.000000e+00
      outer loop
         vertex -2.500000e-01 8.480443e+01 0.000000e+00
         vertex -2.500000e-01 3.487470e+00 -8.010208e-10
         vertex -2.500000e-01 3.487470e+00 1.000000e-03
      endloop
   endfacet
   facet normal -1.000000e+00 -0.000000e+00 -0.000000e+00
      outer loop
         vertex -2.500000e-01 3.487470e+00 1.000000e-03
         vertex -2.500000e-01 8.480443e+01 1.000000e-03
         vertex -2.500000e-01 8.480443e+01 0.000000e+00
      endloop
   endfacet
   facet normal 1.000000e+00 -0.000000e+00 0.000000e+00
      outer loop
         vertex 2.500000e-01 8.480025e+01 1.000000e-03
         vertex 2.500000e-01 3.487470e+00 9.999992e-04
         vertex 2.500000e-01 8.480025e+01 0.000000e+00
      endloop
   endfacet
   facet normal 1.000000e+00 0.000000e+00 0.000000e+00
      outer loop
         vertex 2.500000e-01 3.487470e+00 9.999992e-04
         vertex 2.500000e-01 3.487470e+00 -2.772901e-09
         vertex 2.500000e-01 8.480025e+01 0.000000e+00
      endloop
   endfacet
   facet normal 1.000000e+00 0.000000e+00 -0.000000e+00
      outer loop
         vertex 2.500000e-01 2.500000e-01 0.000000e+00
         vertex 2.500000e-01 2.833014e+00 -2.779102e-09
         vertex 2.500000e-01 2.833014e+00 9.999992e-04
      endloop
   endfacet
   facet normal 1.000000e+00 0.000000e+00 0.000000e+00
      outer loop
         vertex 2.500000e-01 2.833014e+00 9.999992e-04
         vertex 2.500000e-01 2.500000e-01 1.000000e-03
         vertex 2.500000e-01 2.500000e-01 0.000000e+00
      endloop
   endfacet
   facet normal 7.935923e-01 6.084498e-01 -0.000000e+00
      outer loop
         vertex 7.517735e-01 2.833014e+00 -4.806125e-09
         vertex 2.500000e-01 3.487470e+00 -2.772901e-09
         vertex 2.500000e-01 3.487470e+00 9.999992e-04
      endloop
   endfacet
   facet normal 7.935923e-01 6.084498e-01 0.000000e+00
      outer loop
         vertex 2.500000e-01 3.487470e+00 9.999992e-04
         vertex 7.517735e-01 2.833014e+00 1.000000e-03
         vertex 7.517735e-01 2.833014e+00 -4.806125e-09
      endloop
   endfacet
   facet normal 0.000000e+00 -1.000000e+00 0.000000e+00
      outer loop
         vertex 7.517735e-01 2.833014e+00 1.000000e-03
         vertex 2.500000e-01 2.833014e+00 9.999992e-04
         vertex 7.517735e-01 2.833014e+00 -4.806125e-09
      endloop
   endfacet
   facet normal 0.000000e+00 -1.000000e+00 0.000000e+00
      outer loop
         vertex 2.500000e-01 2.833014e+00 9.999992e-04
         vertex 2.500000e-01 2.833014e+00 -2.779102e-09
         vertex 7.517735e-01 2.833014e+00 -4.806125e-09
      endloop
   endfacet
   facet normal -0.000000e+00 -1.000000e+00 0.000000e+00
      outer loop
         vertex -7.517735e-01 2.833014e+00 -4.806125e-09
         vertex -2.500000e-01 2.833014e+00 -8.010208e-10
         vertex -7.517735e-01 2.833014e+00 1.000000e-03
      endloop
   endfacet
   facet normal -0.000000e+00 -1.000000e+00 -0.000000e+00
      outer loop
         vertex -2.500000e-01 2.833014e+00 -8.010208e-10
         vertex -2.500000e-01 2.833014e+00 1.000000e-03
         vertex -7.517735e-01 2.833014e+00 1.000000e-03
      endloop
   endfacet
   facet normal -7.935923e-01 6.084498e-01 0.000000e+00
      outer loop
         vertex -7.517735e-01 2.833014e+00 1.000000e-03
         vertex -2.500000e-01 3.487470e+00 1.000000e-03
         vertex -2.500000e-01 3.487470e+00 -8.010208e-10
      endloop
   endfacet
   facet normal -7.935923e-01 6.084498e-01 0.000000e+00
      outer loop
         vertex -2.500000e-01 3.487470e+00 -8.010208e-10
         vertex -7.517735e-01 2.833014e+00 -4.806125e-09
         vertex -7.517735e-01 2.833014e+00 1.000000e-03
      endloop
   endfacet
   facet normal -0.000000e+00 -1.000000e+00 -0.000000e+00
      outer loop
         vertex -1.002500e+02 -2.500000e-01 0.000000e+00
         vertex -1.002500e+02 -2.500000e-01 1.000000e-03
         vertex -1.731440e+02 -2.500000e-01 1.000000e-03
      endloop
   endfacet
   facet normal 0.000000e+00 -1.000000e+00 0.000000e+00
      outer loop
         vertex -1.731440e+02 -2.500000e-01 1.000000e-03
         vertex -1.731440e+02 -2.500000e-01 0.000000e+00
         vertex -1.002500e+02 -2.500000e-01 0.000000e+00
      endloop
   endfacet
   facet normal -1.000000e+00 0.000000e+00 0.000000e+00
      outer loop
         vertex -1.002500e+02 -8.620423e+01 0.000000e+00
         vertex -1.002500e+02 -8.620423e+01 1.000000e-03
         vertex -1.002500e+02 -2.500000e-01 1.000000e-03
      endloop
   endfacet
   facet normal -1.000000e+00 0.000000e+00 0.000000e+00
      outer loop
         vertex -1.002500e+02 -2.500000e-01 1.000000e-03
         vertex -1.002500e+02 -2.500000e-01 0.000000e+00
         vertex -1.002500e+02 -8.620423e+01 0.000000e+00
      endloop
   endfacet
   facet normal -0.000000e+00 -1.000000e+00 -0.000000e+00
      outer loop
         vertex -9.975000e+01 -8.620423e+01 0.000000e+00
         vertex -9.975000e+01 -8.620423e+01 1.000000e-03
         vertex -1.002500e+02 -8.620423e+01 1.000000e-03
      endloop
   endfacet
   facet normal 0.000000e+00 -1.000000e+00 0.000000e+00
      outer loop
         vertex -1.002500e+02 -8.620423e+01 1.000000e-03
         vertex -1.002500e+02 -8.620423e+01 0.000000e+00
         vertex -9.975000e+01 -8.620423e+01 0.000000e+00
      endloop
   endfacet
   facet normal 1.000000e+00 0.000000e+00 0.000000e+00
      outer loop
         vertex -9.975000e+01 -2.500000e-01 0.000000e+00
         vertex -9.975000e+01 -2.500000e-01 1.000000e-03
         vertex -9.975000e+01 -8.620423e+01 1.000000e-03
      endloop
   endfacet
   facet normal 1.000000e+00 0.000000e+00 0.000000e+00
      outer loop
         vertex -9.975000e+01 -8.620423e+01 1.000000e-03
         vertex -9.975000e+01 -8.620423e+01 0.000000e+00
         vertex -9.975000e+01 -2.500000e-01 0.000000e+00
      endloop
   endfacet
   facet normal 0.000000e+00 -1.000000e+00 0.000000e+00
      outer loop
         vertex -9.975000e+01 -2.500000e-01 1.000000e-03
         vertex -9.975000e+01 -2.500000e-01 0.000000e+00
         vertex -2.500000e-01 -2.500000e-01 0.000000e+00
      endloop
   endfacet
   facet normal -0.000000e+00 -1.000000e+00 -0.000000e+00
      outer loop
         vertex -2.500000e-01 -2.500000e-01 0.000000e+00
         vertex -2.500000e-01 -2.500000e-01 1.000000e-03
         vertex -9.975000e+01 -2.500000e-01 1.000000e-03
      endloop
   endfacet
   facet normal -1.000000e+00 0.000000e+00 0.000000e+00
      outer loop
         vertex -2.500000e-01 -8.480443e+01 0.000000e+00
         vertex -2.500000e-01 -8.480443e+01 1.000000e-03
         vertex -2.500000e-01 -2.500000e-01 1.000000e-03
      endloop
   endfacet
   facet normal -1.000000e+00 0.000000e+00 0.000000e+00
      outer loop
         vertex -2.500000e-01 -2.500000e-01 1.000000e-03
         vertex -2.500000e-01 -2.500000e-01 0.000000e+00
         vertex -2.500000e-01 -8.480443e+01 0.000000e+00
      endloop
   endfacet
   facet normal 0.000000e+00 -1.000000e+00 0.000000e+00
      outer loop
         vertex 2.500000e-01 -8.480443e+01 1.000000e-03
         vertex -2.500000e-01 -8.480443e+01 1.000000e-03
         vertex -2.500000e-01 -8.480443e+01 0.000000e+00
      endloop
   endfacet
   facet normal 0.000000e+00 -1.000000e+00 0.000000e+00
      outer loop
         vertex -2.500000e-01 -8.480443e+01 0.000000e+00
         vertex 2.500000e-01 -8.480443e+01 0.000000e+00
         vertex 2.500000e-01 -8.480443e+01 1.000000e-03
      endloop
   endfacet
   facet normal 1.000000e+00 0.000000e+00 0.000000e+00
      outer loop
         vertex 2.500000e-01 -8.480443e+01 1.000000e-03
         vertex 2.500000e-01 -8.480443e+01 0.000000e+00
         vertex 2.500000e-01 -2.500000e-01 0.000000e+00
      endloop
   endfacet
   facet normal 1.000000e+00 0.000000e+00 0.000000e+00
      outer loop
         vertex 2.500000e-01 -2.500000e-01 0.000000e+00
         vertex 2.500000e-01 -2.500000e-01 1.000000e-03
         vertex 2.500000e-01 -8.480443e+01 1.000000e-03
      endloop
   endfacet
   facet normal -0.000000e+00 -1.000000e+00 -0.000000e+00
      outer loop
         vertex 9.975000e+01 -2.500000e-01 0.000000e+00
         vertex 9.975000e+01 -2.500000e-01 1.000000e-03
         vertex 2.500000e-01 -2.500000e-01 1.000000e-03
      endloop
   endfacet
   facet normal 0.000000e+00 -1.000000e+00 0.000000e+00
      outer loop
         vertex 2.500000e-01 -2.500000e-01 1.000000e-03
         vertex 2.500000e-01 -2.500000e-01 0.000000e+00
         vertex 9.975000e+01 -2.500000e-01 0.000000e+00
      endloop
   endfacet
   facet normal -1.000000e+00 0.000000e+00 0.000000e+00
      outer loop
         vertex 9.975000e+01 -8.477669e+01 0.000000e+00
         vertex 9.975000e+01 -8.477669e+01 1.000000e-03
         vertex 9.975000e+01 -2.500000e-01 1.000000e-03
      endloop
   endfacet
   facet normal -1.000000e+00 0.000000e+00 0.000000e+00
      outer loop
         vertex 9.975000e+01 -2.500000e-01 1.000000e-03
         vertex 9.975000e+01 -2.500000e-01 0.000000e+00
         vertex 9.975000e+01 -8.477669e+01 0.000000e+00
      endloop
   endfacet
   facet normal -0.000000e+00 -1.000000e+00 -0.000000e+00
      outer loop
         vertex 1.002500e+02 -8.477669e+01 0.000000e+00
         vertex 1.002500e+02 -8.477669e+01 1.000000e-03
         vertex 9.975000e+01 -8.477669e+01 1.000000e-03
      endloop
   endfacet
   facet normal 0.000000e+00 -1.000000e+00 0.000000e+00
      outer loop
         vertex 9.975000e+01 -8.477669e+01 1.000000e-03
         vertex 9.975000e+01 -8.477669e+01 0.000000e+00
         vertex 1.002500e+02 -8.477669e+01 0.000000e+00
      endloop
   endfacet
   facet normal 1.000000e+00 0.000000e+00 0.000000e+00
      outer loop
         vertex 1.002500e+02 -2.500000e-01 0.000000e+00
         vertex 1.002500e+02 -2.500000e-01 1.000000e-03
         vertex 1.002500e+02 -8.477669e+01 1.000000e-03
      endloop
   endfacet
   facet normal 1.000000e+00 0.000000e+00 0.000000e+00
      outer loop
         vertex 1.002500e+02 -8.477669e+01 1.000000e-03
         vertex 1.002500e+02 -8.477669e+01 0.000000e+00
         vertex 1.002500e+02 -2.500000e-01 0.000000e+00
      endloop
   endfacet
   facet normal -0.000000e+00 -1.000000e+00 -0.000000e+00
      outer loop
         vertex 1.729031e+02 -2.500000e-01 0.000000e+00
         vertex 1.729031e+02 -2.500000e-01 1.000000e-03
         vertex 1.002500e+02 -2.500000e-01 1.000000e-03
      endloop
   endfacet
   facet normal 0.000000e+00 -1.000000e+00 0.000000e+00
      outer loop
         vertex 1.002500e+02 -2.500000e-01 1.000000e-03
         vertex 1.002500e+02 -2.500000e-01 0.000000e+00
         vertex 1.729031e+02 -2.500000e-01 0.000000e+00
      endloop
   endfacet
   facet normal 1.000000e+00 0.000000e+00 0.000000e+00
      outer loop
         vertex 1.729031e+02 2.500000e-01 0.000000e+00
         vertex 1.729031e+02 2.500000e-01 1.000000e-03
         vertex 1.729031e+02 -2.500000e-01 1.000000e-03
      endloop
   endfacet
   facet normal 1.000000e+00 0.000000e+00 0.000000e+00
      outer loop
         vertex 1.729031e+02 -2.500000e-01 1.000000e-03
         vertex 1.729031e+02 -2.500000e-01 0.000000e+00
         vertex 1.729031e+02 2.500000e-01 0.000000e+00
      endloop
   endfacet
   facet normal -0.000000e+00 1.000000e+00 0.000000e+00
      outer loop
         vertex 1.002500e+02 2.500000e-01 0.000000e+00
         vertex 1.002500e+02 2.500000e-01 1.000000e-03
         vertex 1.729031e+02 2.500000e-01 1.000000e-03
      endloop
   endfacet
   facet normal 0.000000e+00 1.000000e+00 -0.000000e+00
      outer loop
         vertex 1.729031e+02 2.500000e-01 1.000000e-03
         vertex 1.729031e+02 2.500000e-01 0.000000e+00
         vertex 1.002500e+02 2.500000e-01 0.000000e+00
      endloop
   endfacet
   facet normal 1.000000e+00 0.000000e+00 0.000000e+00
      outer loop
         vertex 1.002500e+02 8.468045e+01 0.000000e+00
         vertex 1.002500e+02 8.468045e+01 1.000000e-03
         vertex 1.002500e+02 2.500000e-01 1.000000e-03
      endloop
   endfacet
   facet normal 1.000000e+00 0.000000e+00 0.000000e+00
      outer loop
         vertex 1.002500e+02 2.500000e-01 1.000000e-03
         vertex 1.002500e+02 2.500000e-01 0.000000e+00
         vertex 1.002500e+02 8.468045e+01 0.000000e+00
      endloop
   endfacet
   facet normal -0.000000e+00 1.000000e+00 0.000000e+00
      outer loop
         vertex 9.975000e+01 8.468045e+01 0.000000e+00
         vertex 9.975000e+01 8.468045e+01 1.000000e-03
         vertex 1.002500e+02 8.468045e+01 1.000000e-03
      endloop
   endfacet
   facet normal 0.000000e+00 1.000000e+00 -0.000000e+00
      outer loop
         vertex 1.002500e+02 8.468045e+01 1.000000e-03
         vertex 1.002500e+02 8.468045e+01 0.000000e+00
         vertex 9.975000e+01 8.468045e+01 0.000000e+00
      endloop
   endfacet
   facet normal -1.000000e+00 0.000000e+00 0.000000e+00
      outer loop
         vertex 9.975000e+01 2.500000e-01 0.000000e+00
         vertex 9.975000e+01 2.500000e-01 1.000000e-03
         vertex 9.975000e+01 8.468045e+01 1.000000e-03
      endloop
   endfacet
   facet normal -1.000000e+00 0.000000e+00 0.000000e+00
      outer loop
         vertex 9.975000e+01 8.468045e+01 1.000000e-03
         vertex 9.975000e+01 8.468045e+01 0.000000e+00
         vertex 9.975000e+01 2.500000e-01 0.000000e+00
      endloop
   endfacet
   facet normal 0.000000e+00 1.000000e+00 -0.000000e+00
      outer loop
         vertex 9.975000e+01 2.500000e-01 1.000000e-03
         vertex 9.975000e+01 2.500000e-01 0.000000e+00
         vertex 2.500000e-01 2.500000e-01 0.000000e+00
      endloop
   endfacet
   facet normal -0.000000e+00 1.000000e+00 0.000000e+00
      outer loop
         vertex 2.500000e-01 2.500000e-01 0.000000e+00
         vertex 2.500000e-01 2.500000e-01 1.000000e-03
         vertex 9.975000e+01 2.500000e-01 1.000000e-03
      endloop
   endfacet
   facet normal 8.361524e-03 9.999650e-01 0.000000e+00
      outer loop
         vertex -2.500000e-01 8.480443e+01 1.000000e-03
         vertex 2.500000e-01 8.480025e+01 1.000000e-03
         vertex 2.500000e-01 8.480025e+01 0.000000e+00
      endloop
   endfacet
   facet normal 8.361524e-03 9.999650e-01 -0.000000e+00
      outer loop
         vertex 2.500000e-01 8.480025e+01 0.000000e+00
         vertex -2.500000e-01 8.480443e+01 0.000000e+00
         vertex -2.500000e-01 8.480443e+01 1.000000e-03
      endloop
   endfacet
   facet normal -0.000000e+00 1.000000e+00 0.000000e+00
      outer loop
         vertex -9.975000e+01 2.500000e-01 0.000000e+00
         vertex -9.975000e+01 2.500000e-01 1.000000e-03
         vertex -2.500000e-01 2.500000e-01 1.000000e-03
      endloop
   endfacet
   facet normal 0.000000e+00 1.000000e+00 -0.000000e+00
      outer loop
         vertex -2.500000e-01 2.500000e-01 1.000000e-03
         vertex -2.500000e-01 2.500000e-01 0.000000e+00
         vertex -9.975000e+01 2.500000e-01 0.000000e+00
      endloop
   endfacet
   facet normal 1.000000e+00 0.000000e+00 0.000000e+00
      outer loop
         vertex -9.975000e+01 8.492065e+01 0.000000e+00
         vertex -9.975000e+01 8.492065e+01 1.000000e-03
         vertex -9.975000e+01 2.500000e-01 1.000000e-03
      endloop
   endfacet
   facet normal 1.000000e+00 0.000000e+00 0.000000e+00
      outer loop
         vertex -9.975000e+01 2.500000e-01 1.000000e-03
         vertex -9.975000e+01 2.500000e-01 0.000000e+00
         vertex -9.975000e+01 8.492065e+01 0.000000e+00
      endloop
   endfacet
   facet normal -0.000000e+00 1.000000e+00 0.000000e+00
      outer loop
         vertex -1.002500e+02 8.492065e+01 0.000000e+00
         vertex -1.002500e+02 8.492065e+01 1.000000e-03
         vertex -9.975000e+01 8.492065e+01 1.000000e-03
      endloop
   endfacet
   facet normal 0.000000e+00 1.000000e+00 -0.000000e+00
      outer loop
         vertex -9.975000e+01 8.492065e+01 1.000000e-03
         vertex -9.975000e+01 8.492065e+01 0.000000e+00
         vertex -1.002500e+02 8.492065e+01 0.000000e+00
      endloop
   endfacet
   facet normal -1.000000e+00 0.000000e+00 0.000000e+00
      outer loop
         vertex -1.002500e+02 2.500000e-01 0.000000e+00
         vertex -1.002500e+02 2.500000e-01 1.000000e-03
         vertex -1.002500e+02 8.492065e+01 1.000000e-03
      endloop
   endfacet
   facet normal -1.000000e+00 0.000000e+00 0.000000e+00
      outer loop
         vertex -1.002500e+02 8.492065e+01 1.000000e-03
         vertex -1.002500e+02 8.492065e+01 0.000000e+00
         vertex -1.002500e+02 2.500000e-01 0.000000e+00
      endloop
   endfacet
   facet normal -0.000000e+00 1.000000e+00 0.000000e+00
      outer loop
         vertex -1.731440e+02 2.500000e-01 0.000000e+00
         vertex -1.731440e+02 2.500000e-01 1.000000e-03
         vertex -1.002500e+02 2.500000e-01 1.000000e-03
      endloop
   endfacet
   facet normal 0.000000e+00 1.000000e+00 -0.000000e+00
      outer loop
         vertex -1.002500e+02 2.500000e-01 1.000000e-03
         vertex -1.002500e+02 2.500000e-01 0.000000e+00
         vertex -1.731440e+02 2.500000e-01 0.000000e+00
      endloop
   endfacet
   facet normal -1.000000e+00 0.000000e+00 0.000000e+00
      outer loop
         vertex -1.731440e+02 -2.500000e-01 0.000000e+00
         vertex -1.731440e+02 -2.500000e-01 1.000000e-03
         vertex -1.731440e+02 2.500000e-01 1.000000e-03
      endloop
   endfacet
   facet normal -1.000000e+00 0.000000e+00 0.000000e+00
      outer loop
         vertex -1.731440e+02 2.500000e-01 1.000000e-03
         vertex -1.731440e+02 2.500000e-01 0.000000e+00
         vertex -1.731440e+02 -2.500000e-01 0.000000e+00
      endloop
   endfacet
   facet normal -9.994774e-01 -3.232647e-02 0.000000e+00
      outer loop
         vertex -1.433812e+00 1.339511e+00 1.000000e-03
         vertex -1.433812e+00 1.339511e+00 -4.806125e-09
         vertex -1.426999e+00 1.128860e+00 -4.806125e-09
      endloop
   endfacet
   facet normal -9.994774e-01 -3.232647e-02 -0.000000e+00
      outer loop
         vertex -1.426999e+00 1.128860e+00 -4.806125e-09
         vertex -1.426999e+00 1.128860e+00 1.000000e-03
         vertex -1.433812e+00 1.339511e+00 1.000000e-03
      endloop
   endfacet
   facet normal 8.487211e-01 -5.288408e-01 0.000000e+00
      outer loop
         vertex -1.426999e+00 1.128860e+00 1.000000e-03
         vertex -1.426999e+00 1.128860e+00 -4.806125e-09
         vertex -6.332037e-01 2.402799e+00 -4.806125e-09
      endloop
   endfacet
   facet normal 8.487211e-01 -5.288408e-01 0.000000e+00
      outer loop
         vertex -6.332037e-01 2.402799e+00 -4.806125e-09
         vertex -6.332037e-01 2.402799e+00 1.000000e-03
         vertex -1.426999e+00 1.128860e+00 1.000000e-03
      endloop
   endfacet
   facet normal 9.954633e-01 -9.514620e-02 0.000000e+00
      outer loop
         vertex -6.332037e-01 2.402799e+00 1.000000e-03
         vertex -6.332037e-01 2.402799e+00 -4.806125e-09
         vertex -6.173770e-01 2.568385e+00 -4.806125e-09
      endloop
   endfacet
   facet normal 9.954633e-01 -9.514620e-02 0.000000e+00
      outer loop
         vertex -6.173770e-01 2.568385e+00 -4.806125e-09
         vertex -6.173770e-01 2.568385e+00 1.000000e-03
         vertex -6.332037e-01 2.402799e+00 1.000000e-03
      endloop
   endfacet
   facet normal -7.524158e-01 6.586885e-01 0.000000e+00
      outer loop
         vertex -6.173770e-01 2.568385e+00 1.000000e-03
         vertex -6.173770e-01 2.568385e+00 -4.806125e-09
         vertex -1.053589e+00 2.070102e+00 -4.806125e-09
      endloop
   endfacet
   facet normal -7.524158e-01 6.586885e-01 0.000000e+00
      outer loop
         vertex -1.053589e+00 2.070102e+00 -4.806125e-09
         vertex -1.053589e+00 2.070102e+00 1.000000e-03
         vertex -6.173770e-01 2.568385e+00 1.000000e-03
      endloop
   endfacet
   facet normal 7.733062e-01 6.340328e-01 -0.000000e+00
      outer loop
         vertex -1.053589e+00 2.070102e+00 1.000000e-03
         vertex -1.053589e+00 2.070102e+00 -4.806125e-09
         vertex -1.473776e+00 2.582589e+00 -4.806125e-09
      endloop
   endfacet
   facet normal 7.733062e-01 6.340328e-01 0.000000e+00
      outer loop
         vertex -1.473776e+00 2.582589e+00 -4.806125e-09
         vertex -1.473776e+00 2.582589e+00 1.000000e-03
         vertex -1.053589e+00 2.070102e+00 1.000000e-03
      endloop
   endfacet
   facet normal -8.196812e-01 5.728200e-01 0.000000e+00
      outer loop
         vertex -1.473776e+00 2.582589e+00 1.000000e-03
         vertex -1.473776e+00 2.582589e+00 -4.806125e-09
         vertex -1.559996e+00 2.459213e+00 -4.806125e-09
      endloop
   endfacet
   facet normal -8.196812e-01 5.728200e-01 0.000000e+00
      outer loop
         vertex -1.559996e+00 2.459213e+00 -4.806125e-09
         vertex -1.559996e+00 2.459213e+00 1.000000e-03
         vertex -1.473776e+00 2.582589e+00 1.000000e-03
      endloop
   endfacet
   facet normal -7.543229e-01 -6.565036e-01 0.000000e+00
      outer loop
         vertex -1.559996e+00 2.459213e+00 1.000000e-03
         vertex -1.559996e+00 2.459213e+00 -4.806125e-09
         vertex -1.116365e+00 1.949481e+00 -4.806125e-09
      endloop
   endfacet
   facet normal -7.543229e-01 -6.565036e-01 -0.000000e+00
      outer loop
         vertex -1.116365e+00 1.949481e+00 -4.806125e-09
         vertex -1.116365e+00 1.949481e+00 1.000000e-03
         vertex -1.559996e+00 2.459213e+00 1.000000e-03
      endloop
   endfacet
   facet normal -8.870600e-01 4.616542e-01 0.000000e+00
      outer loop
         vertex -1.116365e+00 1.949481e+00 1.000000e-03
         vertex -1.116365e+00 1.949481e+00 -4.806125e-09
         vertex -1.433812e+00 1.339511e+00 -4.806125e-09
      endloop
   endfacet
   facet normal -8.870600e-01 4.616542e-01 0.000000e+00
      outer loop
         vertex -1.433812e+00 1.339511e+00 -4.806125e-09
         vertex -1.433812e+00 1.339511e+00 1.000000e-03
         vertex -1.116365e+00 1.949481e+00 1.000000e-03
      endloop
   endfacet
   facet normal -0.000000e+00 0.000000e+00 1.000000e+00
      outer loop
         vertex -1.116365e+00 1.949481e+00 1.000000e-03
         vertex -1.433812e+00 1.339511e+00 1.000000e-03
         vertex -1.426999e+00 1.128860e+00 1.000000e-03
      endloop
   endfacet
   facet normal 0.000000e+00 0.000000e+00 1.000000e+00
      outer loop
         vertex -1.426999e+00 1.128860e+00 1.000000e-03
         vertex -6.332037e-01 2.402799e+00 1.000000e-03
         vertex -1.116365e+00 1.949481e+00 1.000000e-03
      endloop
   endfacet
   facet normal 0.000000e+00 0.000000e+00 1.000000e+00
      outer loop
         vertex -6.332037e-01 2.402799e+00 1.000000e-03
         vertex -6.173770e-01 2.568385e+00 1.000000e-03
         vertex -1.053589e+00 2.070102e+00 1.000000e-03
      endloop
   endfacet
   facet normal 0.000000e+00 0.000000e+00 1.000000e+00
      outer loop
         vertex -1.053589e+00 2.070102e+00 1.000000e-03
         vertex -1.473776e+00 2.582589e+00 1.000000e-03
         vertex -1.559996e+00 2.459213e+00 1.000000e-03
      endloop
   endfacet
   facet normal 0.000000e+00 -0.000000e+00 1.000000e+00
      outer loop
         vertex -1.559996e+00 2.459213e+00 1.000000e-03
         vertex -1.116365e+00 1.949481e+00 1.000000e-03
         vertex -1.053589e+00 2.070102e+00 1.000000e-03
      endloop
   endfacet
   facet normal 0.000000e+00 0.000000e+00 1.000000e+00
      outer loop
         vertex -1.116365e+00 1.949481e+00 1.000000e-03
         vertex -6.332037e-01 2.402799e+00 1.000000e-03
         vertex -1.053589e+00 2.070102e+00 1.000000e-03
      endloop
   endfacet
   facet normal 0.000000e+00 0.000000e+00 -1.000000e+00
      outer loop
         vertex -1.116365e+00 1.949481e+00 -4.806125e-09
         vertex -1.426999e+00 1.128860e+00 -4.806125e-09
         vertex -1.433812e+00 1.339511e+00 -4.806125e-09
      endloop
   endfacet
   facet normal 0.000000e+00 0.000000e+00 -1.000000e+00
      outer loop
         vertex -1.116365e+00 1.949481e+00 -4.806125e-09
         vertex -6.332037e-01 2.402799e+00 -4.806125e-09
         vertex -1.426999e+00 1.128860e+00 -4.806125e-09
      endloop
   endfacet
   facet normal 0.000000e+00 0.000000e+00 -1.000000e+00
      outer loop
         vertex -1.053589e+00 2.070102e+00 -4.806125e-09
         vertex -6.173770e-01 2.568385e+00 -4.806125e-09
         vertex -6.332037e-01 2.402799e+00 -4.806125e-09
      endloop
   endfacet
   facet normal 0.000000e+00 -0.000000e+00 -1.000000e+00
      outer loop
         vertex -1.559996e+00 2.459213e+00 -4.806125e-09
         vertex -1.473776e+00 2.582589e+00 -4.806125e-09
         vertex -1.053589e+00 2.070102e+00 -4.806125e-09
      endloop
   endfacet
   facet normal 0.000000e+00 0.000000e+00 -1.000000e+00
      outer loop
         vertex -1.053589e+00 2.070102e+00 -4.806125e-09
         vertex -1.116365e+00 1.949481e+00 -4.806125e-09
         vertex -1.559996e+00 2.459213e+00 -4.806125e-09
      endloop
   endfacet
   facet normal 0.000000e+00 0.000000e+00 -1.000000e+00
      outer loop
         vertex -1.053589e+00 2.070102e+00 -4.806125e-09
         vertex -6.332037e-01 2.402799e+00 -4.806125e-09
         vertex -1.116365e+00 1.949481e+00 -4.806125e-09
      endloop
   endfacet
endsolid
